<?xml version="1.0" encoding="UTF-8" standalone="no"?>
<!-- Created with Inkscape (http://www.inkscape.org/) -->

<svg
   width="60"
   height="100"
   viewBox="0 0 15.87501 26.458333"
   version="1.1"
   id="svg5"
   xml:space="preserve"
   sodipodi:docname="keychain.svg"
   inkscape:version="1.2.1 (9c6d41e410, 2022-07-14)"
   xmlns:inkscape="http://www.inkscape.org/namespaces/inkscape"
   xmlns:sodipodi="http://sodipodi.sourceforge.net/DTD/sodipodi-0.dtd"
   xmlns="http://www.w3.org/2000/svg"
   xmlns:svg="http://www.w3.org/2000/svg"><sodipodi:namedview
     id="namedview7"
     pagecolor="#ffffff"
     bordercolor="#666666"
     borderopacity="1.0"
     inkscape:showpageshadow="2"
     inkscape:pageopacity="0.0"
     inkscape:pagecheckerboard="0"
     inkscape:deskcolor="#d1d1d1"
     inkscape:document-units="mm"
     showgrid="true"
     inkscape:zoom="4.7572176"
     inkscape:cx="54.548693"
     inkscape:cy="58.647727"
     inkscape:window-width="1920"
     inkscape:window-height="1027"
     inkscape:window-x="-8"
     inkscape:window-y="-8"
     inkscape:window-maximized="1"
     inkscape:current-layer="layer1"><inkscape:grid
       type="xygrid"
       id="grid132"
       originx="105.00131"
       originy="148.5" /></sodipodi:namedview><defs
     id="defs2" /><g
     inkscape:label="Layer 1"
     inkscape:groupmode="layer"
     id="layer1"><path
       style="fill:#808080;fill-opacity:1;stroke:#000000;stroke-width:0.0826067;stroke-linecap:butt;stroke-linejoin:miter;stroke-dasharray:none;stroke-opacity:1"
       d="m 1.3616542,1.6743599 c 0,0 0.2943318,-0.05271 0.4418018,-0.041313 0.2294271,0.017731 0.4588387,0.076069 0.669297,0.1691193 0.1583065,0.069992 0.3068008,0.1681997 0.4328963,0.2867734 0.1075457,0.1011308 0.1967809,0.2235306 0.2668048,0.3534925 0.082967,0.1539899 0.1430216,0.3225932 0.1759056,0.4943925 0.059606,0.3114035 -0.0056,0.6360455 0.034627,0.9505396 0.024012,0.1877174 0.1228108,0.5542989 0.1228108,0.5542989 L 2.7452515,3.9098032 c 0,0 0.012099,-0.5244585 -0.056657,-0.7737625 C 2.6503932,2.9975245 2.5733776,2.8713628 2.4952545,2.750769 2.4132956,2.6242543 2.3233541,2.4989889 2.2092917,2.4004343 2.1425817,2.342794 2.0633607,2.2993476 1.9822968,2.2646882 1.9141406,2.2355476 1.7679269,2.2055651 1.7679269,2.2055651 L 1.303031,1.9634158 Z"
       id="path3861"
       sodipodi:nodetypes="caaaaaaccaaaaccc" /><path
       style="fill:#808080;fill-opacity:1;stroke:#000000;stroke-width:0.0826067;stroke-linecap:butt;stroke-linejoin:miter;stroke-dasharray:none;stroke-opacity:1"
       d="m 3.2224509,4.5805652 c 0,0 0.2988681,0.00935 0.4407862,0.05102 0.2207898,0.064831 0.4331602,0.1693863 0.6198035,0.3039796 0.1403928,0.1012407 0.2653462,0.2280553 0.3641707,0.3701592 0.084286,0.1211995 0.1462568,0.2594178 0.1878669,0.4010583 0.049299,0.167827 0.073159,0.3452091 0.069774,0.5200945 -0.00613,0.3169974 -0.1371211,0.6211143 -0.1628529,0.9371251 -0.015359,0.1886227 0.00543,0.567715 0.00543,0.567715 L 4.1134288,7.053965 c 0,0 0.120382,-0.5105989 0.1047128,-0.7687351 C 4.2094355,6.1418065 4.1601986,6.0024368 4.108726,5.8682852 4.0547259,5.727547 3.9926576,5.586379 3.9014624,5.4663512 3.8481263,5.3961523 3.7796126,5.3372504 3.7074772,5.286564 3.6468278,5.2439483 3.5099853,5.1843535 3.5099853,5.1843535 L 3.1052722,4.8512294 Z"
       id="path3867"
       sodipodi:nodetypes="caaaaaaccaaaaccc" /><path
       style="fill:#808080;fill-opacity:1;stroke:#000000;stroke-width:0.0826067;stroke-linecap:butt;stroke-linejoin:miter;stroke-dasharray:none;stroke-opacity:1"
       d="m 4.6517696,7.8765821 c 0,0 0.2447832,0.1717287 0.340599,0.2844079 0.1490661,0.1753011 0.2693053,0.3792019 0.3515578,0.5941102 0.06187,0.1616536 0.096805,0.3362242 0.101505,0.5092494 0.00401,0.1475718 -0.019977,0.2971356 -0.062865,0.4383945 -0.05082,0.1673729 -0.1281523,0.3287839 -0.226897,0.4731649 -0.1789843,0.261705 -0.455304,0.444166 -0.650134,0.694298 -0.1162914,0.149301 -0.3068173,0.477696 -0.3068173,0.477696 L 4.0402806,10.433462 c 0,0 0.3806957,-0.360935 0.5091658,-0.58538 C 4.6208259,9.7233781 4.6560906,9.5798352 4.686624,9.4394294 4.7186565,9.2921298 4.744178,9.1400458 4.7337497,8.9896647 4.7276508,8.9017134 4.7026646,8.8148845 4.6701443,8.7329391 4.6428021,8.6640416 4.5610601,8.5391591 4.5610601,8.5391591 L 4.4053425,8.0386429 Z"
       id="path3873"
       sodipodi:nodetypes="caaaaaaccaaaaccc" /><path
       style="fill:#808080;fill-opacity:1;stroke:#000000;stroke-width:0.0826068;stroke-linecap:butt;stroke-linejoin:miter;stroke-dasharray:none;stroke-opacity:1"
       d="m 3.9000789,11.308318 c 0,0 0.1962555,0.225595 0.2621347,0.358024 0.1024922,0.206025 0.1701215,0.432872 0.1982313,0.661259 0.021144,0.171793 0.013036,0.34964 -0.024046,0.51871 -0.031627,0.144199 -0.090905,0.283593 -0.1665307,0.410377 -0.089609,0.150221 -0.2035177,0.288274 -0.3341096,0.404645 -0.2367108,0.210933 -0.5488229,0.321525 -0.7981282,0.517413 -0.1488072,0.116922 -0.4127712,0.389807 -0.4127712,0.389807 l 0.06631,-0.925693 c 0,0 0.4563755,-0.258698 0.635089,-0.445624 0.099295,-0.103858 0.1680716,-0.234694 0.2315007,-0.363624 0.066543,-0.13526 0.1279185,-0.27673 0.153991,-0.425201 0.015249,-0.08683 0.011895,-0.177124 5.37e-5,-0.264487 -0.00996,-0.07345 -0.059238,-0.214339 -0.059238,-0.214339 l -0.030675,-0.523281 z"
       id="path3879"
       sodipodi:nodetypes="caaaaaaccaaaaccc" /><path
       style="fill:#808080;fill-opacity:1;stroke:#000000;stroke-width:0.0826067;stroke-linecap:butt;stroke-linejoin:miter;stroke-dasharray:none;stroke-opacity:1"
       d="m 0.9397759,21.171902 c 0,0 0.2722018,-0.123757 0.4179193,-0.149128 0.2267009,-0.03947 0.4634138,-0.03959 0.6903318,-0.0014 0.1706874,0.02873 0.3388338,0.08723 0.4903039,0.170998 0.1291875,0.07144 0.2458836,0.168018 0.3458306,0.276664 0.1184221,0.128734 0.2182506,0.277287 0.2925386,0.435646 0.1346549,0.287042 0.1516298,0.617733 0.268271,0.912555 0.069622,0.175975 0.2558808,0.506808 0.2558808,0.506808 L 2.8325256,22.996469 c 0,0 -0.1177805,-0.511205 -0.2459675,-0.735811 C 2.5153361,22.135864 2.4095521,22.032627 2.30407,21.935058 2.1934088,21.832699 2.0753208,21.733522 1.9404544,21.666185 1.8615774,21.626805 1.7740811,21.604265 1.686969,21.590695 1.613728,21.579285 1.4646381,21.586295 1.4646381,21.586295 L 0.9543447,21.466482 Z"
       id="path3897"
       sodipodi:nodetypes="caaaaaaccaaaaccc" /><path
       style="fill:#808080;fill-opacity:1;stroke:#000000;stroke-width:0.0826067;stroke-linecap:butt;stroke-linejoin:miter;stroke-dasharray:none;stroke-opacity:1"
       d="m 1.3718383,17.527917 c 0,0 0.2818483,0.09986 0.4043541,0.182738 0.190589,0.128946 0.3610691,0.29317 0.4979013,0.478178 0.1029251,0.139162 0.1833606,0.297988 0.2342536,0.463426 0.043406,0.1411 0.060375,0.291622 0.056908,0.439207 -0.00411,0.17487 -0.035363,0.3511 -0.091808,0.51666 -0.102311,0.300096 -0.3196322,0.549928 -0.4403106,0.84312 -0.072031,0.175003 -0.1675914,0.542442 -0.1675914,0.542442 l -0.397681,-0.838543 c 0,0 0.2700556,-0.449748 0.3336843,-0.70041 0.035353,-0.13927 0.030864,-0.287013 0.022657,-0.430466 -0.00861,-0.150496 -0.024775,-0.303857 -0.075119,-0.445944 -0.029444,-0.0831 -0.076783,-0.160059 -0.1300727,-0.230293 -0.044804,-0.05905 -0.1570206,-0.157463 -0.1570206,-0.157463 L 1.1778499,17.750084 Z"
       id="path3891"
       sodipodi:nodetypes="caaaaaaccaaaaccc" /><path
       style="fill:#808080;fill-opacity:1;stroke:#000000;stroke-width:0.0826067;stroke-linecap:butt;stroke-linejoin:miter;stroke-dasharray:none;stroke-opacity:1"
       d="m 1.0852499,17.463275 c -0.21497395,0.05355 -0.44096845,0.13506 -0.59677997,0.292553 -0.15081239,0.152441 -0.25099888,0.367781 -0.27694753,0.58064 -0.0376358,0.30873 0.0924129,0.617902 0.18759929,0.913993 0.0985991,0.306708 0.24576536,0.596493 0.39378396,0.882643 0.14162762,0.273795 0.32772865,0.522862 0.47156845,0.795501 0.0884,0.167557 0.1889383,0.332755 0.2399339,0.515209 0.012464,0.0446 0.015147,0.138087 0.015147,0.138087 0,0 -0.099306,0.06774 -0.1267272,0.118713 -0.029944,0.05566 -0.050372,0.126471 -0.031903,0.18692 0.018098,0.05923 0.069505,0.114908 0.1282897,0.134411 0.093554,0.03104 0.2045285,-0.0031 0.2915426,-0.04945 0.1069674,-0.05693 0.2010607,-0.152741 0.2506146,-0.263317 0.074742,-0.166781 0.062941,-0.364581 0.044872,-0.546449 -0.01684,-0.169498 -0.079638,-0.332286 -0.1412122,-0.4911 C 1.8314371,20.404438 1.6802951,20.158207 1.5535543,19.901185 1.4106292,19.611342 1.2135718,19.342089 1.1261951,19.030959 1.0831511,18.877688 1.0382871,18.7082 1.0827581,18.555337 c 0.030302,-0.104161 0.113176,-0.191071 0.1988319,-0.257636 0.062163,-0.04831 0.2168187,-0.09366 0.2168187,-0.09366 0,0 0.050547,-0.147462 0.054007,-0.224281 0.00352,-0.07812 -0.00884,-0.158107 -0.03419,-0.232076 -0.021439,-0.06255 -0.049979,-0.1268 -0.097554,-0.17272 -0.060063,-0.05797 -0.1408697,-0.09689 -0.2222781,-0.115367 -0.036799,-0.0084 -0.076527,-0.0054 -0.1131427,0.0037 z"
       id="path3893"
       sodipodi:nodetypes="aaaaaaacaaaaaaaaaaacaaaaa" /><path
       style="fill:#808080;fill-opacity:1;stroke:#000000;stroke-width:0.0826067;stroke-linecap:butt;stroke-linejoin:miter;stroke-dasharray:none;stroke-opacity:1"
       d="m 3.1595102,24.091257 c 0,0 0.1198106,-0.273962 0.2112658,-0.390208 0.1422817,-0.180851 0.3183088,-0.339115 0.5126535,-0.462327 0.1461855,-0.09268 0.3103702,-0.161519 0.4790319,-0.200416 0.1438503,-0.03317 0.295201,-0.03931 0.4421577,-0.02526 0.1741247,0.01664 0.3476596,0.06045 0.5087462,0.128624 0.2919858,0.123569 0.5255895,0.358247 0.8093724,0.499641 0.1693863,0.0844 0.5290262,0.206061 0.5290262,0.206061 l -0.8649038,0.336521 c 0,0 -0.4292229,-0.301614 -0.6746759,-0.383055 -0.1363765,-0.04525 -0.2840612,-0.05137 -0.4277333,-0.05347 -0.1507261,-0.0022 -0.3048515,0.0029 -0.4501831,0.04294 -0.084998,0.02341 -0.1651529,0.06511 -0.239028,0.113223 -0.062112,0.04045 -0.1683178,0.145324 -0.1683178,0.145324 l -0.4597279,0.251822 z"
       id="path3903"
       sodipodi:nodetypes="caaaaaaccaaaaccc" /><path
       style="fill:#808080;fill-opacity:1;stroke:#000000;stroke-width:0.0826067;stroke-linecap:butt;stroke-linejoin:miter;stroke-dasharray:none;stroke-opacity:1"
       d="M 1.0806299,1.7600148 C 0.92032682,1.9129344 0.76428232,2.0956013 0.70682778,2.3095651 0.65121665,2.5166639 0.67072491,2.7533662 0.75351568,2.9511747 0.87359488,3.238075 1.1396041,3.4423753 1.3688464,3.6525627 1.606308,3.8702861 1.8775975,4.0492689 2.1478293,4.224672 c 0.2585639,0.1678297 0.5435363,0.2921626 0.8034506,0.4578932 0.1597363,0.1018535 0.3288533,0.195651 0.4634585,0.3289598 0.032901,0.032584 0.081498,0.1124972 0.081498,0.1124972 0,0 -0.052771,0.1080066 -0.051373,0.1658711 0.00153,0.063189 0.018816,0.1348264 0.06478,0.1782143 0.045039,0.042515 0.1172623,0.065454 0.1779958,0.053311 C 3.7842949,5.5020918 3.8638127,5.4174724 3.9165088,5.3341725 3.9812881,5.2317701 4.0156352,5.101946 4.0039743,4.9813367 3.9863863,4.7994222 3.8782446,4.6333806 3.7725412,4.4842866 3.6740266,4.3453325 3.5388983,4.2349532 3.4067989,4.1274212 3.1845522,3.946507 2.931361,3.8073374 2.6940336,3.6467157 2.4264006,3.4655832 2.1219181,3.3291316 1.8920201,3.1020119 1.778766,2.9901265 1.6559057,2.8650496 1.6189004,2.7102096 1.5936849,2.6047013 1.6226896,2.4881678 1.6641798,2.3879361 1.6942908,2.3151945 1.8062385,2.1992526 1.8062385,2.1992526 c 0,0 -0.029052,-0.1531535 -0.064062,-0.2216194 -0.0356,-0.06962 -0.085922,-0.1330158 -0.1445593,-0.1847455 -0.049584,-0.043744 -0.1061799,-0.08545 -0.1702461,-0.1018096 -0.080883,-0.020653 -0.1703615,-0.014485 -0.2502441,0.00975 -0.036109,0.010955 -0.069194,0.03314 -0.096498,0.059186 z"
       id="path3863"
       sodipodi:nodetypes="aaaaaaacaaaaaaaaaaacaaaaa" /><g
       id="g2350"
       transform="translate(-7.1370983,-6.0606424)"
       style="fill:#808080;fill-opacity:1"><path
         style="fill:#808080;fill-opacity:1;stroke:#000000;stroke-width:0.132292;stroke-linecap:butt;stroke-linejoin:miter;stroke-dasharray:none;stroke-opacity:1"
         d="m 9.4132185,1.9187949 c 0,0 0.4312432,0.2081771 0.6117895,0.3615121 0.280886,0.2385515 0.5236,0.5297518 0.70912,0.8481631 0.139548,0.2395083 0.239861,0.5063906 0.29199,0.7786412 0.04446,0.2322005 0.04519,0.4747814 0.0139,0.7091198 -0.03708,0.2776606 -0.117604,0.5527472 -0.236369,0.8064503 C 10.588376,5.882544 10.198793,6.242308 9.9554862,6.6879736 9.8102595,6.9539855 9.5939741,7.5222321 9.5939741,7.5222321 L 9.1073231,6.1178968 c 0,0 0.5084407,-0.6688054 0.6535025,-1.0567275 0.080598,-0.215534 0.09925,-0.451513 0.1112346,-0.6813114 C 9.884633,4.1387767 9.8856793,3.8918158 9.8303473,3.6568337 9.7979861,3.519403 9.7360638,3.3886258 9.6634955,3.2675131 9.6024821,3.165685 9.4410267,2.9894268 9.4410267,2.9894268 L 9.0656102,2.238594 Z"
         id="path1019"
         sodipodi:nodetypes="caaaaaaccaaaaccc" /><path
         style="fill:#808080;fill-opacity:1;stroke:#000000;stroke-width:0.132292;stroke-linecap:butt;stroke-linejoin:miter;stroke-dasharray:none;stroke-opacity:1"
         d="M 8.9682806,1.7658475 C 8.6167086,1.8135585 8.2427109,1.9038499 7.9671703,2.1273596 7.7004703,2.3436981 7.5033793,2.6690072 7.424902,3.0033312 7.3110789,3.4882327 7.464119,4.0031171 7.563945,4.4910925 7.66735,4.9965637 7.8510251,5.4835747 8.0366917,5.9649494 c 0.17765,0.4605903 0.4304161,0.8895812 0.6117896,1.348718 0.1114672,0.2821729 0.2426693,0.5627115 0.2919905,0.8620673 0.012055,0.07317 0,0.2224691 0,0.2224691 0,0 -0.1699152,0.090494 -0.2224688,0.1668518 C 8.660614,8.6484396 8.6157309,8.757591 8.634577,8.857046 8.653044,8.9545 8.725158,9.0521068 8.8153331,9.0934192 8.9588441,9.1591662 9.1414744,9.1241332 9.2880798,9.0656112 9.4683035,8.9936678 9.6348234,8.8575688 9.7330177,8.6901942 9.8811237,8.4377438 9.8968769,8.1208003 9.8998695,7.828127 9.9026585,7.5553583 9.8311158,7.2852484 9.7608262,7.021677 9.6425695,6.5782388 9.4449601,6.1598658 9.2880798,5.7285762 9.1111665,5.2422126 8.8444836,4.7791744 8.7597159,4.2686234 8.717957,4.017112 8.6761337,3.739467 8.7736197,3.5038863 8.8400469,3.3433611 8.9871512,3.2194793 9.1351318,3.1284701 9.2425265,3.0624216 9.496644,3.0172355 9.496644,3.0172355 c 0,0 0.1062159,-0.2259213 0.1251386,-0.3476077 C 9.6410242,2.5458903 9.6353232,2.4163915 9.6078788,2.2942113 9.5846713,2.1908936 9.5504577,2.08363 9.4827401,2.0022208 9.3972476,1.8994428 9.2754065,1.823374 9.1490365,1.7797518 9.0919141,1.7600335 9.0281617,1.7577212 8.9682806,1.7658475 Z"
         id="path921"
         sodipodi:nodetypes="aaaaaaacaaaaaaaaaaacaaaaa" /></g><path
       style="fill:#808080;fill-opacity:1;stroke:#000000;stroke-width:0.0826067;stroke-linecap:butt;stroke-linejoin:miter;stroke-dasharray:none;stroke-opacity:1"
       d="M 2.9297837,4.6062029 C 2.7413022,4.7226342 2.5508305,4.86905 2.4503366,5.0664898 2.353067,5.2575949 2.3231635,5.4932097 2.3632219,5.7038702 c 0.058101,0.3055406 0.2760668,0.5604725 0.4568439,0.8135544 0.1872585,0.2621559 0.4156307,0.4934112 0.6437089,0.7209453 0.2182304,0.2177099 0.4712997,0.3983305 0.6912858,0.6142663 0.1351973,0.1327083 0.2812397,0.2594764 0.38534,0.4177575 0.025445,0.038688 0.056451,0.1269289 0.056451,0.1269289 0,0 -0.073982,0.094746 -0.084591,0.1516471 -0.011585,0.062137 -0.0095,0.1358014 0.026493,0.1877629 0.035265,0.050916 0.1011765,0.088307 0.1631084,0.088996 0.098563,0.0011 0.1938721,-0.065233 0.2626675,-0.1358233 C 5.0490999,8.6031269 5.1095726,8.4832224 5.1231263,8.3628111 5.1435693,8.1811953 5.0721341,7.9963672 4.9995768,7.8286243 4.9319541,7.6722896 4.8225964,7.5363332 4.7156128,7.4037893 4.5356213,7.1807946 4.3167156,6.9922362 4.1177702,6.7859735 3.8934203,6.5533718 3.6237714,6.356857 3.4458573,6.0870737 3.3582119,5.9541711 3.2638985,5.8063744 3.259741,5.6472281 3.256911,5.5387855 3.309403,5.4307781 3.3707399,5.3413037 3.4152539,5.2763687 3.5487739,5.186107 3.5487739,5.186107 c 0,0 0.00327,-0.1558503 -0.016807,-0.2300795 C 3.5115475,4.8805471 3.475435,4.8081087 3.428774,4.7453632 3.3893166,4.6923045 3.3425784,4.6397873 3.2832852,4.6105227 c -0.074857,-0.036946 -0.163675,-0.04943 -0.2468438,-0.042253 -0.037594,0.00324 -0.074555,0.018102 -0.1066577,0.037933 z"
       id="path3869"
       sodipodi:nodetypes="aaaaaaacaaaaaaaaaaacaaaaa" /><path
       style="fill:#808080;fill-opacity:1;stroke:#000000;stroke-width:0.0826067;stroke-linecap:butt;stroke-linejoin:miter;stroke-dasharray:none;stroke-opacity:1"
       d="M 4.3929837,7.7375093 C 4.1715218,7.7314968 3.9319509,7.7494655 3.7396349,7.8594475 3.5534892,7.9659008 3.3992633,8.146519 3.3172248,8.3446406 3.1982366,8.6319951 3.2406824,8.964708 3.2530457,9.275478 c 0.012806,0.3219122 0.076939,0.6405341 0.142866,0.955884 0.063081,0.301733 0.1756347,0.59156 0.2411565,0.892772 0.040268,0.185117 0.092862,0.371215 0.093102,0.560661 5.84e-5,0.04631 -0.02241,0.137096 -0.02241,0.137096 0,0 -0.1138257,0.03865 -0.1539034,0.08041 -0.043765,0.0456 -0.082419,0.108348 -0.080824,0.171535 0.00156,0.06192 0.036172,0.12933 0.087581,0.163873 0.081816,0.05497 0.1978904,0.05178 0.2941308,0.03048 0.1183096,-0.02618 0.2346368,-0.09328 0.3120088,-0.186531 0.1166998,-0.140653 0.1583339,-0.334382 0.1896594,-0.514441 0.029195,-0.167812 0.012315,-0.341474 -0.00445,-0.51098 C 4.3237547,10.771063 4.2441214,10.493336 4.1908885,10.211751 4.1308579,9.8942087 4.0131573,9.5819986 4.0123478,9.2588333 4.0119491,9.0996332 4.014143,8.9243218 4.0979491,8.7889654 4.1550547,8.6967332 4.2581863,8.6352092 4.3585467,8.5940312 4.4313817,8.5641472 4.592533,8.5618982 4.592533,8.5618982 c 0,0 0.088213,-0.1285245 0.1121316,-0.2016075 0.024322,-0.074314 0.033853,-0.1546923 0.029248,-0.2327502 C 4.7300183,8.0615334 4.719739,7.9919859 4.6862086,7.9349963 4.6438769,7.8630477 4.576455,7.8038971 4.5029737,7.7642856 c -0.033215,-0.017905 -0.07227,-0.025752 -0.10999,-0.026776 z"
       id="path3875"
       sodipodi:nodetypes="aaaaaaacaaaaaaaaaaacaaaaa" /><path
       style="fill:#808080;fill-opacity:1;stroke:#000000;stroke-width:0.0826068;stroke-linecap:butt;stroke-linejoin:miter;stroke-dasharray:none;stroke-opacity:1"
       d="m 6.7507382,24.767977 c 0,0 -0.098873,-0.282194 -0.1110866,-0.429599 -0.019002,-0.229325 0.00209,-0.465097 0.060465,-0.68768 0.04391,-0.167427 0.1172378,-0.329656 0.2142362,-0.473013 0.082729,-0.122267 0.1893704,-0.229842 0.306534,-0.319654 0.1388261,-0.106412 0.2957252,-0.192531 0.460103,-0.252333 0.2979513,-0.108397 0.628833,-0.09568 0.9329189,-0.185437 0.1815048,-0.05358 0.5276946,-0.209447 0.5276946,-0.209447 L 8.7375386,23.0463 c 0,0 -0.5197015,0.07151 -0.7548886,0.179058 -0.1306726,0.05975 -0.242972,0.155865 -0.3495982,0.252182 -0.1118613,0.101046 -0.221219,0.209774 -0.300368,0.338065 -0.046291,0.07503 -0.076578,0.160157 -0.097897,0.245703 -0.017924,0.07193 -0.024259,0.221046 -0.024259,0.221046 L 7.045439,24.779858 Z"
       id="path3909"
       sodipodi:nodetypes="caaaaaaccaaaaccc" /><path
       style="fill:#808080;fill-opacity:1;stroke:#000000;stroke-width:0.0826067;stroke-linecap:butt;stroke-linejoin:miter;stroke-dasharray:none;stroke-opacity:1"
       d="m 2.1548662,14.168547 c 0,0 0.2540797,0.157648 0.3560987,0.264744 0.1587165,0.166614 0.2902653,0.363408 0.3845087,0.573335 0.07089,0.157906 0.1156151,0.330228 0.1300673,0.502713 0.012326,0.147111 -0.00319,0.297789 -0.038037,0.441242 -0.041298,0.169973 -0.1094034,0.335489 -0.1998471,0.48521 -0.1639383,0.271384 -0.4295264,0.46914 -0.6099376,0.729863 -0.1076852,0.155623 -0.2793848,0.494241 -0.2793848,0.494241 l -0.209764,-0.904049 c 0,0 0.3597313,-0.381833 0.4753371,-0.613166 0.064232,-0.128532 0.091344,-0.273835 0.1139094,-0.41574 0.023673,-0.148872 0.040576,-0.302153 0.021682,-0.451706 -0.01105,-0.08747 -0.040894,-0.172749 -0.077985,-0.25273 -0.031185,-0.06724 -0.1198406,-0.187318 -0.1198406,-0.187318 L 1.9179724,14.34425 Z"
       id="path3885"
       sodipodi:nodetypes="caaaaaaccaaaaccc" /><path
       style="fill:#808080;fill-opacity:1;stroke:#000000;stroke-width:0.0826067;stroke-linecap:butt;stroke-linejoin:miter;stroke-dasharray:none;stroke-opacity:1"
       d="m 9.9388607,22.812142 c 0,0 -0.2801504,-0.104524 -0.4012621,-0.189432 C 9.3491784,22.490616 9.1814505,22.323582 9.0477111,22.136326 8.9471126,21.995472 8.8693271,21.835332 8.82119,21.669071 8.780134,21.527269 8.765669,21.376486 8.771587,21.228979 8.778607,21.054202 8.812779,20.878515 8.8719668,20.713915 8.97925,20.415561 9.2006923,20.169374 9.3262255,19.878228 9.4011545,19.704446 9.5028067,19.338646 9.5028067,19.338646 l 0.383693,0.845035 c 0,0 -0.2774908,0.445199 -0.3452756,0.694768 -0.037662,0.138664 -0.035628,0.286462 -0.029806,0.430031 0.00611,0.150618 0.019723,0.304227 0.067699,0.447131 0.028059,0.08358 0.074113,0.161312 0.1262282,0.232422 0.043817,0.05979 0.1543834,0.16005 0.1543834,0.16005 l 0.2767863,0.445145 z"
       id="path3915"
       sodipodi:nodetypes="caaaaaaccaaaaccc" /><path
       style="fill:#808080;fill-opacity:1;stroke:#000000;stroke-width:0.0826067;stroke-linecap:butt;stroke-linejoin:miter;stroke-dasharray:none;stroke-opacity:1"
       d="m 1.8886479,14.044292 c -0.2214485,0.0065 -0.4596244,0.03794 -0.6454308,0.158596 -0.1798449,0.116784 -0.32363765,0.305813 -0.39437055,0.508247 -0.1025906,0.293608 -0.041446,0.623398 -0.011573,0.932975 0.030943,0.320678 0.1129453,0.635175 0.19655485,0.946303 0.079999,0.297695 0.2087218,0.580712 0.291129,0.877749 0.050645,0.182551 0.1136524,0.365386 0.1245773,0.554517 0.00267,0.04623 -0.014641,0.138142 -0.014641,0.138142 0,0 -0.1114644,0.04501 -0.1491227,0.08897 -0.041123,0.048 -0.076177,0.112824 -0.07102,0.175821 0.00505,0.06173 0.043409,0.127084 0.096684,0.158671 0.084786,0.05027 0.200496,0.04054 0.295382,0.01384 0.1166445,-0.03281 0.2290019,-0.106364 0.3009908,-0.203833 0.1085806,-0.147012 0.1392211,-0.342781 0.1603407,-0.524319 0.019683,-0.169192 -0.00696,-0.341625 -0.033265,-0.509916 C 1.9906355,17.07692 1.8954639,16.804126 1.826433,16.525993 1.748587,16.212342 1.6134639,15.907268 1.5944277,15.584663 c -0.00938,-0.158924 -0.017076,-0.33408 0.058962,-0.473948 0.051812,-0.09531 0.1513097,-0.16255 0.2491876,-0.209323 0.071034,-0.03395 0.2318014,-0.04528 0.2318014,-0.04528 0,0 0.080823,-0.133296 0.1005814,-0.207612 0.020091,-0.07557 0.025074,-0.156355 0.016073,-0.234029 -0.00761,-0.06568 -0.021797,-0.13454 -0.058488,-0.189547 -0.046323,-0.06945 -0.1169735,-0.1247 -0.1925721,-0.160104 -0.034172,-0.016 -0.073607,-0.02163 -0.1113252,-0.02053 z"
       id="path3887"
       sodipodi:nodetypes="aaaaaaacaaaaaaaaaaacaaaaa" /><path
       style="fill:#808080;fill-opacity:1;stroke:#000000;stroke-width:0.0826068;stroke-linecap:butt;stroke-linejoin:miter;stroke-dasharray:none;stroke-opacity:1"
       d="m 3.6823728,11.111048 c -0.2135047,-0.05914 -0.4503578,-0.09936 -0.6634913,-0.0389 -0.2062952,0.05852 -0.3994591,0.196711 -0.5267705,0.369263 -0.1846516,0.250269 -0.2235318,0.583418 -0.2863289,0.888028 -0.065049,0.315531 -0.079489,0.640223 -0.091398,0.962169 -0.011396,0.308046 0.028093,0.616443 0.019192,0.924571 -0.00547,0.189367 7.872e-4,0.382653 -0.044577,0.566587 -0.011088,0.04496 -0.054747,0.127673 -0.054747,0.127673 0,0 -0.1197823,0.01012 -0.1687332,0.04101 -0.053455,0.03373 -0.106074,0.08533 -0.1197334,0.14704 -0.013384,0.06047 0.00398,0.134234 0.045565,0.180134 0.06618,0.07305 0.1796106,0.09789 0.2781476,0.10038 0.1211331,0.0031 0.2501898,-0.03406 0.3477318,-0.105953 0.1471221,-0.108431 0.2341596,-0.286445 0.3079012,-0.45367 0.068726,-0.155853 0.09414,-0.328472 0.1186644,-0.497031 0.04126,-0.283586 0.030811,-0.572316 0.046916,-0.858435 0.018161,-0.322655 -0.020936,-0.654016 0.056058,-0.967877 0.03793,-0.154616 0.082254,-0.324246 0.1961739,-0.435452 0.077626,-0.07578 0.1925334,-0.11067 0.2998544,-0.126483 0.077887,-0.01148 0.2348418,0.02513 0.2348418,0.02513 0,0 0.1165533,-0.103515 0.1573587,-0.168692 0.041493,-0.06628 0.07009,-0.141998 0.084407,-0.21887 0.012107,-0.065 0.018869,-0.134981 4.04e-5,-0.198365 -0.02377,-0.08002 -0.074974,-0.153661 -0.1367614,-0.209794 -0.027929,-0.02537 -0.063947,-0.04239 -0.1003121,-0.05246 z"
       id="path3881"
       sodipodi:nodetypes="aaaaaaacaaaaaaaaaaacaaaaa" /><path
       style="fill:#808080;fill-opacity:1;stroke:#000000;stroke-width:0.0826068;stroke-linecap:butt;stroke-linejoin:miter;stroke-dasharray:none;stroke-opacity:1"
       d="m 7.1294519,17.194473 c 0,0 -0.2986656,-0.01444 -0.4398472,-0.05857 C 6.4699584,17.067297 6.2594104,16.959122 6.0751006,16.821352 5.9364631,16.717719 5.8137008,16.588783 5.7173256,16.445007 5.6351279,16.322381 5.5755351,16.183121 5.5363581,16.040789 c -0.046417,-0.168648 -0.067233,-0.346412 -0.060853,-0.521215 0.011565,-0.316845 0.1477431,-0.618673 0.1788857,-0.934197 0.018588,-0.188332 0.0043,-0.567724 0.0043,-0.567724 l 0.6222954,0.688515 c 0,0 -0.1291129,0.508462 -0.1178691,0.766828 0.00625,0.143551 0.053089,0.283744 0.1022556,0.418758 0.051581,0.141644 0.1112211,0.283854 0.2003464,0.405427 0.052126,0.0711 0.1196198,0.131169 0.1908762,0.183084 0.059911,0.04365 0.1957117,0.105578 0.1957117,0.105578 l 0.3989461,0.340009 z"
       id="path3927"
       sodipodi:nodetypes="caaaaaaccaaaaccc" /><path
       style="fill:#808080;fill-opacity:1;stroke:#000000;stroke-width:0.0826068;stroke-linecap:butt;stroke-linejoin:miter;stroke-dasharray:none;stroke-opacity:1"
       d="m 10.264478,18.960429 c 0,0 -0.236258,0.183281 -0.3721756,0.241622 -0.2114565,0.09076 -0.4417414,0.145551 -0.6713468,0.160795 -0.172711,0.01143 -0.3498203,-0.0066 -0.516542,-0.05313 C 8.5622181,19.270043 8.4263716,19.203033 8.3040332,19.120409 8.1590795,19.022507 8.027639,18.901028 7.9187836,18.764109 7.721472,18.515929 7.6285767,18.198101 7.4469947,17.938191 7.3386108,17.783055 7.0809756,17.504187 7.0809756,17.504187 l 0.9205106,0.118175 c 0,0 0.2326684,0.47018 0.4092664,0.659106 0.09812,0.104968 0.2248881,0.180982 0.3500533,0.251549 0.1313107,0.07403 0.2691128,0.143252 0.4158853,0.177619 0.085841,0.0201 0.1761768,0.02182 0.2640674,0.0149 0.073893,-0.0059 0.2173256,-0.04712 0.2173256,-0.04712 l 0.5241788,-0.0012 z"
       id="path3921"
       sodipodi:nodetypes="caaaaaaccaaaaccc" /><path
       style="fill:#808080;fill-opacity:1;stroke:#000000;stroke-width:0.0826068;stroke-linecap:butt;stroke-linejoin:miter;stroke-dasharray:none;stroke-opacity:1"
       d="m 5.3973682,13.487938 c 0,0 -0.035335,-0.29692 -0.015298,-0.443466 0.031174,-0.22799 0.102882,-0.453579 0.2081298,-0.658211 0.079168,-0.153924 0.1859254,-0.296394 0.311699,-0.41531 0.107272,-0.101422 0.2347001,-0.183314 0.3685498,-0.245586 0.1585967,-0.07379 0.3304351,-0.123832 0.5038689,-0.14657 0.3143662,-0.04122 0.6346184,0.04294 0.9509327,0.02125 0.1888027,-0.01294 0.5605541,-0.09005 0.5605541,-0.09005 l -0.5756031,0.728001 c 0,0 -0.5228428,-0.04288 -0.7757546,0.01112 -0.1405205,0.03 -0.2709868,0.09947 -0.3959601,0.170383 -0.1311087,0.07439 -0.2614398,0.156818 -0.3665223,0.264896 -0.061459,0.06321 -0.1094821,0.139743 -0.1488412,0.218633 -0.033091,0.06632 -0.071609,0.210527 -0.071609,0.210527 l -0.2690309,0.449874 z"
       id="path3977"
       sodipodi:nodetypes="caaaaaaccaaaaccc" /><path
       style="fill:#808080;fill-opacity:1;stroke:#000000;stroke-width:0.0826068;stroke-linecap:butt;stroke-linejoin:miter;stroke-dasharray:none;stroke-opacity:1"
       d="m 8.5248048,11.451992 c 0,0 0.2197873,-0.202738 0.3502417,-0.272445 0.202955,-0.108445 0.4277369,-0.182649 0.6552097,-0.217395 0.1711035,-0.02613 0.3491126,-0.02321 0.5191908,0.0089 0.145055,0.02743 0.286119,0.08261 0.41505,0.154516 0.152766,0.0852 0.294076,0.195041 0.414198,0.32219 0.217734,0.230471 0.337365,0.539233 0.540425,0.782731 0.121205,0.145344 0.401658,0.40125 0.401658,0.40125 l -0.927232,-0.03934 c 0,0 -0.271873,-0.448651 -0.463922,-0.621848 -0.106701,-0.09624 -0.239484,-0.161175 -0.370206,-0.220823 -0.1371382,-0.06258 -0.2803372,-0.119807 -0.4295026,-0.141548 -0.08724,-0.01272 -0.1773968,-0.0067 -0.2643762,0.0076 -0.07313,0.01208 -0.2125233,0.06545 -0.2125233,0.06545 l -0.5221667,0.04589 z"
       id="path3983"
       sodipodi:nodetypes="caaaaaaccaaaaccc" /><path
       style="fill:#808080;fill-opacity:1;stroke:#000000;stroke-width:0.0826068;stroke-linecap:butt;stroke-linejoin:miter;stroke-dasharray:none;stroke-opacity:1"
       d="m 12.039661,12.905638 c 0,0 0.297937,0.02536 0.437417,0.07458 0.217004,0.07656 0.423455,0.192371 0.602618,0.336768 0.134763,0.108621 0.252739,0.241953 0.343803,0.38915 0.07767,0.125543 0.132141,0.266884 0.166098,0.410552 0.04023,0.170229 0.05455,0.348634 0.04179,0.523087 -0.02312,0.316213 -0.170216,0.612872 -0.212863,0.927046 -0.02545,0.18753 -0.02501,0.56719 -0.02501,0.56719 l -0.596757,-0.710764 c 0,0 0.147572,-0.503414 0.145771,-0.762016 -10e-4,-0.143684 -0.0427,-0.285493 -0.08691,-0.422211 -0.04638,-0.143431 -0.10079,-0.287723 -0.185419,-0.412468 -0.0495,-0.07296 -0.114754,-0.135451 -0.184069,-0.189927 -0.05827,-0.0458 -0.191727,-0.112648 -0.191727,-0.112648 l -0.386275,-0.354341 z"
       id="path3989"
       sodipodi:nodetypes="caaaaaaccaaaaccc" /><path
       style="fill:#808080;fill-opacity:1;stroke:#000000;stroke-width:0.0826068;stroke-linecap:butt;stroke-linejoin:miter;stroke-dasharray:none;stroke-opacity:1"
       d="m 13.071472,16.218976 c 0,0 0.292717,0.06105 0.425251,0.126717 0.20621,0.102125 0.397208,0.241962 0.557669,0.406898 0.120724,0.124039 0.221762,0.270627 0.294432,0.427724 0.06198,0.133981 0.09903,0.280857 0.115442,0.427568 0.01944,0.173835 0.01216,0.352667 -0.02151,0.524313 -0.06104,0.311127 -0.242787,0.587911 -0.322955,0.894664 -0.04784,0.183104 -0.09314,0.560049 -0.09314,0.560049 L 13.51985,18.809445 c 0,0 0.207136,-0.481972 0.236485,-0.738914 0.01631,-0.142759 -0.008,-0.288557 -0.03543,-0.429604 -0.02876,-0.147972 -0.0654,-0.297767 -0.134393,-0.431795 -0.04035,-0.07839 -0.09761,-0.148282 -0.159854,-0.210714 -0.05234,-0.05248 -0.176785,-0.134894 -0.176785,-0.134894 L 12.909088,16.46524 Z"
       id="path3995"
       sodipodi:nodetypes="caaaaaaccaaaaccc" /><path
       style="fill:#808080;fill-opacity:1;stroke:#000000;stroke-width:0.0826068;stroke-linecap:butt;stroke-linejoin:miter;stroke-dasharray:none;stroke-opacity:1"
       d="m 13.827612,19.978831 c 0,0 0.193727,0.227769 0.25813,0.360922 0.100192,0.207157 0.165286,0.434741 0.190846,0.663427 0.01923,0.172022 0.0092,0.349764 -0.02983,0.518412 -0.03322,0.143842 -0.09405,0.282565 -0.171091,0.408498 -0.09128,0.149213 -0.206717,0.285986 -0.338597,0.400895 -0.239045,0.208282 -0.552349,0.31543 -0.803843,0.508489 -0.1501,0.115256 -0.417089,0.385183 -0.417089,0.385183 l 0.07666,-0.924894 c 0,0 0.459229,-0.253595 0.640015,-0.438518 0.100445,-0.102746 0.170679,-0.232805 0.235538,-0.361021 0.06803,-0.134516 0.130992,-0.275289 0.158726,-0.423458 0.01627,-0.08665 0.01389,-0.176976 0.003,-0.264468 -0.0091,-0.07356 -0.05685,-0.214983 -0.05685,-0.214983 l -0.02486,-0.523591 z"
       id="path4001"
       sodipodi:nodetypes="caaaaaaccaaaaccc" /><path
       style="fill:#808080;fill-opacity:1;stroke:#000000;stroke-width:0.0826068;stroke-linecap:butt;stroke-linejoin:miter;stroke-dasharray:none;stroke-opacity:1"
       d="m 11.386398,23.047005 c 0,0 0.28048,-0.103637 0.427654,-0.118349 0.228974,-0.02289 0.465069,-0.0058 0.688607,0.04881 0.168151,0.04106 0.331595,0.111632 0.476574,0.206191 0.123653,0.08064 0.233017,0.185453 0.3248,0.301073 0.108747,0.137008 0.19751,0.292425 0.260086,0.455769 0.113434,0.29607 0.106316,0.627122 0.201213,0.929642 0.05664,0.180577 0.218355,0.524073 0.218355,0.524073 l -0.842212,-0.389852 c 0,0 -0.0803,-0.518415 -0.191819,-0.751748 -0.062,-0.129621 -0.15996,-0.240296 -0.258085,-0.345262 -0.1029,-0.110156 -0.213469,-0.217653 -0.3431,-0.294603 -0.07581,-0.04502 -0.161432,-0.07385 -0.247325,-0.09372 -0.0722,-0.01672 -0.221428,-0.02051 -0.221428,-0.02051 l -0.500225,-0.156645 z"
       id="path4007"
       sodipodi:nodetypes="caaaaaaccaaaaccc" /><path
       style="fill:#808080;fill-opacity:1;stroke:#000000;stroke-width:0.0826067;stroke-linecap:butt;stroke-linejoin:miter;stroke-dasharray:none;stroke-opacity:1"
       d="m 0.68860478,21.324297 c -0.11757865,0.187768 -0.22368507,0.403311 -0.22652639,0.624836 -0.00275,0.214418 0.0746029,0.438973 0.20367479,0.610212 0.187205,0.248365 0.49542462,0.380653 0.76946972,0.527725 0.2838705,0.152345 0.5909553,0.258796 0.8961312,0.362039 0.2919993,0.09878 0.5988485,0.1489 0.891638,0.245318 0.1799404,0.05926 0.3669818,0.108388 0.5303367,0.204331 0.039928,0.02345 0.1067536,0.08889 0.1067536,0.08889 0,0 -0.024467,0.117693 -0.00882,0.17342 0.017082,0.06086 0.051526,0.126005 0.1067805,0.1567 0.054143,0.03008 0.1297938,0.03447 0.185648,0.0077 0.08889,-0.0426 0.1450504,-0.144229 0.1755454,-0.237962 0.037487,-0.115227 0.038713,-0.249512 -0.00237,-0.363507 C 4.2549002,23.552066 4.1091066,23.41787 3.9698607,23.299494 3.8400849,23.189169 3.6818851,23.115575 3.5273236,23.043992 3.2672859,22.92356 2.98757,22.85122 2.7179297,22.754176 2.4138572,22.644739 2.0851096,22.587699 1.8062481,22.424381 1.6688733,22.343926 1.5189324,22.25306 1.4448383,22.112153 c -0.050488,-0.09602 -0.051157,-0.216102 -0.035702,-0.323475 0.011216,-0.07792 0.091068,-0.217919 0.091068,-0.217919 0,0 -0.065971,-0.141237 -0.1168023,-0.198938 -0.051688,-0.05867 -0.1161072,-0.10768 -0.1857019,-0.143328 -0.058851,-0.03014 -0.1239921,-0.05659 -0.1901141,-0.05662 -0.083478,-4.2e-5 -0.16866262,0.02803 -0.24008712,0.07124 -0.032286,0.01953 -0.058868,0.0492 -0.078894,0.08118 z"
       id="path3899"
       sodipodi:nodetypes="aaaaaaacaaaaaaaaaaacaaaaa" /><path
       style="fill:#808080;fill-opacity:1;stroke:#000000;stroke-width:0.0826067;stroke-linecap:butt;stroke-linejoin:miter;stroke-dasharray:none;stroke-opacity:1"
       d="m 3.0744827,24.372472 c 0.037997,0.21826 0.1030878,0.449518 0.249002,0.616223 0.1412327,0.161357 0.3488332,0.276728 0.5592838,0.317875 0.3052362,0.05968 0.6229378,-0.04786 0.9250934,-0.12157 0.3129891,-0.07635 0.6125812,-0.202355 0.9086098,-0.329472 0.2832468,-0.121627 0.5450186,-0.289387 0.8272713,-0.413305 0.1734649,-0.07616 0.3454482,-0.164588 0.5310889,-0.202368 0.045375,-0.0092 0.1388183,-0.0052 0.1388183,-0.0052 0,0 0.060443,0.103908 0.1093186,0.134914 0.053373,0.03386 0.1225328,0.05931 0.1841507,0.04523 0.060378,-0.0138 0.1195965,-0.06109 0.1432652,-0.11832 0.037668,-0.09109 0.011535,-0.204228 -0.028412,-0.294338 -0.049108,-0.110775 -0.1379288,-0.211497 -0.2446661,-0.268853 -0.1609914,-0.08651 -0.3591292,-0.08892 -0.5418241,-0.08394 -0.1702699,0.0046 -0.3371416,0.0556 -0.4999627,0.10563 -0.2739338,0.08417 -0.5303705,0.21726 -0.79582,0.325242 -0.2993463,0.121772 -0.5820376,0.299012 -0.8986325,0.363851 -0.1559633,0.03194 -0.3282322,0.06453 -0.4775128,0.0092 -0.1017201,-0.03769 -0.1824627,-0.126587 -0.2427136,-0.216796 -0.043726,-0.06547 -0.077867,-0.222977 -0.077867,-0.222977 0,0 -0.1434575,-0.06099 -0.2198312,-0.06995 -0.077661,-0.0091 -0.1583334,-0.0025 -0.2339304,0.01746 -0.063926,0.0169 -0.130057,0.04076 -0.179271,0.08492 -0.062132,0.05575 -0.1067476,0.133559 -0.1310107,0.213433 -0.010968,0.0361 -0.010919,0.07594 -0.00445,0.113115 z"
       id="path3905"
       sodipodi:nodetypes="aaaaaaacaaaaaaaaaaacaaaaa" /><path
       style="fill:#808080;fill-opacity:1;stroke:#000000;stroke-width:0.0826068;stroke-linecap:butt;stroke-linejoin:miter;stroke-dasharray:none;stroke-opacity:1"
       d="m 6.880019,25.031791 c 0.1764791,0.133928 0.3816487,0.258918 0.6020286,0.281594 0.2133091,0.02195 0.4438914,-0.03497 0.6260058,-0.148187 0.2641375,-0.164202 0.4235069,-0.45933 0.5945388,-0.719097 0.177164,-0.269081 0.3106982,-0.565394 0.4408665,-0.860093 0.1245481,-0.281975 0.2019515,-0.583101 0.3242124,-0.866075 0.075138,-0.173908 0.1408306,-0.355796 0.2510216,-0.509898 0.02693,-0.03767 0.0981,-0.09836 0.0981,-0.09836 0,0 0.1150278,0.03491 0.1719328,0.02432 0.06214,-0.01156 0.1301155,-0.04003 0.1656365,-0.09231 0.03481,-0.05123 0.04596,-0.126183 0.02431,-0.184211 -0.03446,-0.09235 -0.130655,-0.157388 -0.2212795,-0.196158 -0.1114058,-0.04766 -0.2450418,-0.06091 -0.3622586,-0.03021 -0.1767981,0.04631 -0.3235163,0.179495 -0.4538909,0.307576 -0.1215079,0.11937 -0.208979,0.27034 -0.294121,0.417867 -0.1432447,0.248203 -0.2403528,0.520313 -0.361164,0.780175 -0.1362383,0.293046 -0.2225015,0.615361 -0.4101455,0.87847 -0.092439,0.129614 -0.1963721,0.270812 -0.3433509,0.331984 -0.1001517,0.04168 -0.2198158,0.03159 -0.3253724,0.0066 -0.076606,-0.01815 -0.2088841,-0.110225 -0.2088841,-0.110225 0,0 -0.1465794,0.05305 -0.2086022,0.09851 -0.063068,0.04622 -0.1176489,0.105994 -0.159389,0.172115 -0.035296,0.05591 -0.067466,0.118424 -0.073423,0.184277 -0.00752,0.08314 0.012808,0.170496 0.049446,0.245504 0.016561,0.03391 0.043729,0.06304 0.073787,0.08585 z"
       id="path3911"
       sodipodi:nodetypes="aaaaaaacaaaaaaaaaaacaaaaa" /><path
       style="fill:#808080;fill-opacity:1;stroke:#000000;stroke-width:0.0826067;stroke-linecap:butt;stroke-linejoin:miter;stroke-dasharray:none;stroke-opacity:1"
       d="m 10.224337,22.881536 c 0.215834,-0.04997 0.443151,-0.127714 0.601558,-0.282597 0.153325,-0.149913 0.257075,-0.363559 0.286557,-0.575958 0.04276,-0.308062 -0.08213,-0.619351 -0.172387,-0.916984 -0.09349,-0.308304 -0.23582,-0.600493 -0.379064,-0.889063 -0.137059,-0.276111 -0.318996,-0.528235 -0.458286,-0.803227 -0.0856,-0.169003 -0.1833843,-0.335849 -0.2313413,-0.519124 -0.01172,-0.0448 -0.01285,-0.138321 -0.01285,-0.138321 0,0 0.100417,-0.06608 0.128682,-0.11659 0.03087,-0.05516 0.05247,-0.125616 0.035,-0.186364 -0.01711,-0.05953 -0.06759,-0.116047 -0.1260747,-0.136524 -0.09303,-0.03259 -0.2045521,-2.58e-4 -0.2923236,0.0446 -0.1078985,0.05514 -0.2035708,0.149379 -0.2549551,0.259116 -0.077503,0.165516 -0.06899,0.363485 -0.053945,0.545628 0.014022,0.169755 0.074106,0.333563 0.1330328,0.493379 0.09914,0.268877 0.2461702,0.517586 0.3686229,0.776678 0.13809,0.292178 0.3306817,0.564667 0.4128767,0.877206 0.04049,0.153965 0.08253,0.324175 0.03553,0.476279 -0.03203,0.103643 -0.116335,0.189164 -0.203086,0.254296 -0.062959,0.04727 -0.2183797,0.09004 -0.2183797,0.09004 0,0 -0.05299,0.146602 -0.05773,0.223354 -0.0048,0.07804 0.0062,0.158232 0.03033,0.232612 0.0204,0.0629 0.04786,0.127612 0.09467,0.174317 0.05909,0.05896 0.1392747,0.09922 0.2203657,0.119044 0.03665,0.009 0.07643,0.0067 0.113189,-0.0018 z"
       id="path3917"
       sodipodi:nodetypes="aaaaaaacaaaaaaaaaaacaaaaa" /><path
       style="fill:#808080;fill-opacity:1;stroke:#000000;stroke-width:0.0826068;stroke-linecap:butt;stroke-linejoin:miter;stroke-dasharray:none;stroke-opacity:1"
       d="m 10.438743,18.755038 c 0.08355,-0.205185 0.151026,-0.435759 0.115744,-0.654475 -0.03415,-0.211698 -0.148953,-0.419614 -0.30554,-0.566117 C 10.021834,17.32196 9.6954609,17.244624 9.4002136,17.146851 9.0943803,17.045572 8.7735676,16.993494 8.4551868,16.944249 8.1505528,16.897129 7.8396566,16.900509 7.5346511,16.855857 7.347203,16.828416 7.1544999,16.812167 6.9770839,16.745734 c -0.043365,-0.01624 -0.1204447,-0.06922 -0.1204447,-0.06922 0,0 0.00387,-0.120147 -0.021119,-0.172356 -0.027289,-0.05701 -0.07242,-0.115271 -0.132128,-0.136011 -0.058507,-0.02032 -0.1337874,-0.01165 -0.1842093,0.02432 -0.080245,0.05724 -0.1180978,0.167017 -0.132026,0.264597 -0.017121,0.119956 0.00475,0.252453 0.064821,0.357689 0.090598,0.158727 0.2572897,0.265863 0.4148118,0.35854 0.1468092,0.08637 0.315305,0.131678 0.479871,0.175625 0.2768693,0.07394 0.5648567,0.09712 0.8471654,0.146366 0.3183584,0.05554 0.6520177,0.05522 0.9548028,0.168166 0.1491602,0.05564 0.3124892,0.11938 0.409703,0.245453 0.06624,0.08591 0.08754,0.20409 0.09078,0.312522 0.0023,0.07869 -0.05225,0.23033 -0.05225,0.23033 0,0 0.08927,0.127794 0.149261,0.175898 0.061,0.04891 0.1328896,0.08612 0.2075771,0.109272 0.06316,0.01958 0.131874,0.03443 0.197017,0.02309 0.08224,-0.01431 0.161333,-0.05661 0.224267,-0.111452 0.02845,-0.02479 0.04953,-0.05859 0.06376,-0.09354 z"
       id="path3923"
       sodipodi:nodetypes="aaaaaaacaaaaaaaaaaacaaaaa" /><path
       style="fill:#808080;fill-opacity:1;stroke:#000000;stroke-width:0.0826068;stroke-linecap:butt;stroke-linejoin:miter;stroke-dasharray:none;stroke-opacity:1"
       d="M 7.4225154,17.173854 C 7.6129642,17.060668 7.8059167,16.917538 7.9097787,16.721849 8.0103085,16.532438 8.0442446,16.297371 8.0078013,16.086055 7.9549446,15.779564 7.7413784,15.520935 7.5649641,15.264793 7.3822249,14.999467 7.1578486,14.764333 6.9337024,14.532924 6.7192342,14.311506 6.4692968,14.126576 6.2530429,13.906903 6.1201392,13.771898 5.9762903,13.642646 5.8749173,13.482604 c -0.024778,-0.03911 -0.054268,-0.127877 -0.054268,-0.127877 0,0 0.075595,-0.09347 0.087176,-0.150175 0.012652,-0.06193 0.011825,-0.13562 -0.023272,-0.18819 -0.034388,-0.05151 -0.099649,-0.09002 -0.1615594,-0.09178 -0.09853,-0.0028 -0.1949613,0.0619 -0.264956,0.131302 -0.086044,0.08531 -0.1485633,0.204168 -0.1641781,0.324329 -0.023552,0.181239 0.044706,0.367264 0.1143786,0.536225 0.064934,0.157471 0.1719463,0.295281 0.2766432,0.429638 0.1761443,0.226047 0.391787,0.418328 0.5871691,0.627969 0.2203317,0.236411 0.4865739,0.437517 0.6598394,0.71031 0.085355,0.134385 0.1771226,0.283775 0.1785526,0.44297 9.768e-4,0.108475 -0.053364,0.215567 -0.1162248,0.303977 -0.04562,0.06416 -0.1806669,0.152124 -0.1806669,0.152124 0,0 -0.00595,0.155771 0.012862,0.230334 0.019124,0.07581 0.05399,0.148865 0.099569,0.212402 0.038542,0.05372 0.084373,0.107036 0.143157,0.137313 0.074213,0.03822 0.1628039,0.05223 0.2460838,0.04647 0.037643,-0.0026 0.074854,-0.01682 0.1072918,-0.0361 z"
       id="path3929"
       sodipodi:nodetypes="aaaaaaacaaaaaaaaaaacaaaaa" /><path
       style="fill:#808080;fill-opacity:1;stroke:#000000;stroke-width:0.0826068;stroke-linecap:butt;stroke-linejoin:miter;stroke-dasharray:none;stroke-opacity:1"
       d="m 5.4663731,13.773506 c 0.1432426,0.169007 0.3164308,0.335509 0.5266515,0.405429 0.2034756,0.06768 0.440911,0.06213 0.6432441,-0.0089 0.2934565,-0.103056 0.5130248,-0.356609 0.7363112,-0.573114 0.2312918,-0.224266 0.4258964,-0.484577 0.6168653,-0.744043 0.1827236,-0.248263 0.3235759,-0.525442 0.5042833,-0.775176 0.1110575,-0.153478 0.2146242,-0.316797 0.3556073,-0.443342 0.03446,-0.03093 0.1170897,-0.07476 0.1170897,-0.07476 0,0 0.104722,0.05902 0.1625685,0.06102 0.063172,0.0022 0.1356997,-0.01087 0.1817098,-0.0542 0.045087,-0.04246 0.072228,-0.113216 0.063671,-0.174557 C 9.3607575,11.294252 9.280954,11.209896 9.200892,11.1524 9.1024702,11.081719 8.9748863,11.039811 8.8538004,11.044369 c -0.1826336,0.0069 -0.3547387,0.105081 -0.5097826,0.201847 -0.1444994,0.09018 -0.2626232,0.218598 -0.3777269,0.344156 -0.1936525,0.211239 -0.34745,0.455821 -0.5217309,0.683307 -0.1965357,0.256534 -0.3506315,0.552479 -0.5908596,0.768644 -0.1183426,0.106488 -0.2504182,0.221791 -0.4071641,0.24964 -0.1068079,0.01898 -0.2214363,-0.01682 -0.3190641,-0.0641 -0.07085,-0.03432 -0.1800173,-0.152884 -0.1800173,-0.152884 0,0 -0.1545941,0.02 -0.2249996,0.05094 -0.07159,0.03145 -0.1378313,0.07796 -0.1929152,0.13346 -0.04658,0.04693 -0.091538,0.10098 -0.1116319,0.163974 -0.025366,0.07953 -0.024467,0.169217 -0.00496,0.250386 0.00882,0.03669 0.02902,0.07102 0.053418,0.09981 z"
       id="path3979"
       sodipodi:nodetypes="aaaaaaacaaaaaaaaaaacaaaaa" /><path
       style="fill:#808080;fill-opacity:1;stroke:#000000;stroke-width:0.0826068;stroke-linecap:butt;stroke-linejoin:miter;stroke-dasharray:none;stroke-opacity:1"
       d="m 8.3339555,11.675347 c -0.052898,0.215136 -0.086208,0.45306 -0.019568,0.664343 0.064502,0.204504 0.208255,0.393565 0.3844401,0.515799 0.2555361,0.177293 0.5896755,0.206457 0.8959791,0.26038 0.3172918,0.05583 0.6422643,0.06082 0.9644213,0.06336 0.308247,0.0024 0.615364,-0.04603 0.923621,-0.0461 0.189444,-3.5e-5 0.382469,-0.01193 0.567646,0.02806 0.04524,0.0098 0.129211,0.05101 0.129211,0.05101 0,0 0.01361,0.119438 0.04589,0.167467 0.03527,0.05245 0.08837,0.103551 0.150462,0.115411 0.06084,0.01161 0.134059,-0.0079 0.17873,-0.05079 0.0711,-0.06829 0.09262,-0.182385 0.09223,-0.280954 -4.68e-4,-0.121173 -0.04133,-0.249092 -0.11603,-0.344501 -0.112668,-0.143905 -0.293139,-0.225723 -0.46244,-0.294564 -0.157771,-0.06421 -0.331071,-0.08455 -0.500277,-0.104139 -0.284665,-0.03299 -0.572971,-0.01414 -0.859437,-0.02191 -0.323047,-0.0088 -0.65313,0.03997 -0.9690985,-0.02786 -0.1556549,-0.03341 -0.3265023,-0.07279 -0.4409796,-0.183413 -0.078004,-0.07539 -0.1162272,-0.189231 -0.135157,-0.296046 -0.013737,-0.07752 0.018281,-0.235474 0.018281,-0.235474 0,0 -0.106863,-0.113492 -0.173201,-0.152383 -0.067459,-0.03954 -0.1439766,-0.06593 -0.221224,-0.07803 -0.065324,-0.01023 -0.1354667,-0.01497 -0.1982838,0.0057 -0.079296,0.02609 -0.151414,0.07942 -0.2057242,0.14281 -0.024551,0.02866 -0.040511,0.06516 -0.049519,0.101798 z"
       id="path3985"
       sodipodi:nodetypes="aaaaaaacaaaaaaaaaaacaaaaa" /><path
       style="fill:#808080;fill-opacity:1;stroke:#000000;stroke-width:0.0826068;stroke-linecap:butt;stroke-linejoin:miter;stroke-dasharray:none;stroke-opacity:1"
       d="m 11.74604,12.91555 c -0.194452,0.10616 -0.392499,0.242155 -0.503431,0.433923 -0.107383,0.185614 -0.149873,0.419287 -0.121158,0.631794 0.04164,0.308216 0.245624,0.574466 0.412575,0.836875 0.172935,0.271818 0.388583,0.514982 0.604135,0.754415 0.206246,0.229097 0.449268,0.423024 0.657362,0.650441 0.127887,0.139773 0.266925,0.27418 0.362392,0.437814 0.02334,0.04 0.04956,0.129771 0.04956,0.129771 0,0 -0.07896,0.09064 -0.0926,0.146895 -0.01493,0.06142 -0.01674,0.135101 0.01639,0.188914 0.03248,0.05274 0.0963,0.09361 0.158103,0.09761 0.09836,0.0064 0.197089,-0.05474 0.269571,-0.121547 0.0891,-0.08212 0.155921,-0.198608 0.175909,-0.318119 0.03018,-0.180255 -0.03128,-0.36865 -0.09474,-0.540042 -0.05914,-0.159735 -0.161058,-0.301358 -0.260782,-0.439447 -0.167779,-0.232323 -0.37626,-0.432345 -0.563864,-0.648976 -0.211558,-0.244294 -0.470284,-0.454981 -0.633479,-0.733913 -0.08039,-0.137411 -0.166651,-0.290051 -0.162271,-0.449191 0.003,-0.108438 0.0612,-0.213475 0.127232,-0.299537 0.04793,-0.06246 0.186098,-0.145428 0.186098,-0.145428 0,0 0.01162,-0.155452 -0.0045,-0.23065 -0.01634,-0.07646 -0.04852,-0.150736 -0.09175,-0.215893 -0.03655,-0.0551 -0.08042,-0.110053 -0.138054,-0.142441 -0.07277,-0.04091 -0.160763,-0.05821 -0.244222,-0.05543 -0.03771,0.0012 -0.07542,0.01408 -0.108542,0.03216 z"
       id="path3991"
       sodipodi:nodetypes="aaaaaaacaaaaaaaaaaacaaaaa" /><path
       style="fill:#808080;fill-opacity:1;stroke:#000000;stroke-width:0.0826068;stroke-linecap:butt;stroke-linejoin:miter;stroke-dasharray:none;stroke-opacity:1"
       d="m 12.778796,16.193454 c -0.205823,0.08197 -0.418807,0.193121 -0.552028,0.370132 -0.128988,0.171309 -0.199256,0.398197 -0.196366,0.612605 0.0042,0.310986 0.17465,0.599866 0.308782,0.880472 0.138937,0.29067 0.323732,0.558034 0.508879,0.821684 0.17715,0.252271 0.395047,0.474057 0.574246,0.724873 0.110126,0.154147 0.231957,0.304337 0.307022,0.478274 0.01835,0.04251 0.03358,0.134797 0.03358,0.134797 0,0 -0.08931,0.08046 -0.109616,0.134672 -0.02216,0.0592 -0.03291,0.132091 -0.0065,0.189512 0.0259,0.05626 0.08431,0.104533 0.1452,0.115938 0.09687,0.01818 0.202248,-0.03061 0.282247,-0.0882 0.09834,-0.07079 0.178703,-0.178383 0.212897,-0.294644 0.05163,-0.17532 0.01335,-0.369735 -0.02901,-0.547522 -0.03948,-0.165691 -0.123591,-0.318561 -0.205958,-0.467655 C 13.913588,19.007559 13.730716,18.78388 13.57057,18.54623 13.389975,18.278235 13.158504,18.037922 13.03009,17.741364 12.96683,17.59527 12.899584,17.433356 12.923099,17.2759 c 0.01602,-0.107294 0.08646,-0.204552 0.162392,-0.282025 0.0551,-0.05624 0.202259,-0.121958 0.202259,-0.121958 0,0 0.03027,-0.152913 0.02336,-0.229505 -0.007,-0.07788 -0.03001,-0.155485 -0.06508,-0.225373 -0.02965,-0.05909 -0.06658,-0.118926 -0.11989,-0.158038 -0.06733,-0.04934 -0.152611,-0.07708 -0.235775,-0.08443 -0.03758,-0.0033 -0.07658,0.0049 -0.111617,0.01885 z"
       id="path3997"
       sodipodi:nodetypes="aaaaaaacaaaaaaaaaaacaaaaa" /><path
       style="fill:#808080;fill-opacity:1;stroke:#000000;stroke-width:0.0826068;stroke-linecap:butt;stroke-linejoin:miter;stroke-dasharray:none;stroke-opacity:1"
       d="m 13.612119,19.779147 c -0.212831,-0.06151 -0.449224,-0.104362 -0.663016,-0.04628 -0.206935,0.05623 -0.401627,0.192247 -0.530855,0.363368 -0.187429,0.248197 -0.23002,0.58089 -0.296213,0.884781 -0.0686,0.31478 -0.08662,0.639296 -0.102116,0.96109 -0.01483,0.3079 0.02122,0.616718 0.0089,0.924727 -0.0075,0.189297 -0.0035,0.382637 -0.05086,0.566057 -0.01163,0.04483 -0.05615,0.127061 -0.05615,0.127061 0,0 -0.11989,0.0088 -0.16918,0.03912 -0.05385,0.03309 -0.107025,0.08414 -0.121369,0.145696 -0.01409,0.06033 0.0025,0.134274 0.04354,0.180631 0.06536,0.07377 0.178509,0.09988 0.277013,0.103472 0.121091,0.0044 0.250555,-0.03127 0.34889,-0.102073 0.148322,-0.106782 0.237339,-0.283816 0.312938,-0.450211 0.07047,-0.155075 0.0978,-0.3274 0.124195,-0.495676 0.04441,-0.28311 0.03719,-0.571936 0.05648,-0.857859 0.02174,-0.322436 -0.01364,-0.654209 0.06684,-0.967193 0.03964,-0.154186 0.0859,-0.3233 0.201014,-0.433242 0.07846,-0.0749 0.193753,-0.108521 0.301245,-0.123127 0.07802,-0.01057 0.234549,0.02774 0.234549,0.02774 0,0 0.117701,-0.102221 0.159229,-0.166932 0.04223,-0.06581 0.07166,-0.141211 0.08684,-0.217916 0.01286,-0.06485 0.02036,-0.134761 0.0022,-0.19835 -0.02292,-0.08027 -0.07325,-0.154488 -0.134418,-0.211304 -0.02765,-0.02568 -0.06346,-0.04312 -0.09973,-0.05357 z"
       id="path4003"
       sodipodi:nodetypes="aaaaaaacaaaaaaaaaaacaaaaa" /><path
       style="fill:#808080;fill-opacity:1;stroke:#000000;stroke-width:0.0826068;stroke-linecap:butt;stroke-linejoin:miter;stroke-dasharray:none;stroke-opacity:1"
       d="m 11.124812,23.180736 c -0.130914,0.178724 -0.252412,0.385984 -0.271354,0.606714 -0.01833,0.21365 0.04249,0.443235 0.158772,0.623403 0.168652,0.261319 0.466441,0.415664 0.729039,0.582307 0.272046,0.172576 0.570575,0.301076 0.867438,0.426234 0.284045,0.119755 0.586436,0.192052 0.871444,0.309492 0.175156,0.07218 0.358132,0.134781 0.514078,0.242347 0.03808,0.02632 0.100025,0.0964 0.100025,0.0964 0,0 -0.03298,0.115597 -0.02141,0.17232 0.01262,0.06193 0.04223,0.129415 0.09512,0.164038 0.05182,0.03392 0.126954,0.04379 0.184596,0.02119 0.09173,-0.03607 0.155123,-0.133335 0.19238,-0.224573 0.04577,-0.112195 0.05675,-0.246039 0.02406,-0.362717 -0.0493,-0.175992 -0.184944,-0.320435 -0.315222,-0.448613 -0.121427,-0.119454 -0.273827,-0.204385 -0.422788,-0.287002 -0.250596,-0.139016 -0.524307,-0.231509 -0.786182,-0.347893 -0.295314,-0.131249 -0.619044,-0.212039 -0.885292,-0.395204 -0.131191,-0.0902 -0.274104,-0.191753 -0.337728,-0.337704 -0.04336,-0.09944 -0.03531,-0.219253 -0.01209,-0.325216 0.01687,-0.07689 0.106671,-0.210719 0.106671,-0.210719 0,0 -0.05553,-0.14566 -0.10208,-0.206877 -0.0473,-0.06226 -0.107934,-0.115869 -0.17478,-0.156454 -0.05648,-0.03439 -0.11956,-0.06545 -0.185499,-0.07028 -0.08325,-0.0061 -0.170251,0.0157 -0.244628,0.05361 -0.0336,0.01719 -0.06224,0.04485 -0.08459,0.07524 z"
       id="path4009"
       sodipodi:nodetypes="aaaaaaacaaaaaaaaaaacaaaaa" /><g
       id="g7332"
       transform="translate(4.7928006,22.582238)"
       style="fill:#808080;fill-opacity:1"><path
         style="fill:#808080;fill-opacity:1;stroke:#000000;stroke-width:0.132292;stroke-linecap:butt;stroke-linejoin:miter;stroke-dasharray:none;stroke-opacity:1"
         d="m 9.4132185,1.9187949 c 0,0 0.4312432,0.2081771 0.6117895,0.3615121 0.280886,0.2385515 0.5236,0.5297518 0.70912,0.8481631 0.139548,0.2395083 0.239861,0.5063906 0.29199,0.7786412 0.04446,0.2322005 0.04519,0.4747814 0.0139,0.7091198 -0.03708,0.2776606 -0.117604,0.5527472 -0.236369,0.8064503 C 10.588376,5.882544 10.198793,6.242308 9.9554862,6.6879736 9.8102595,6.9539855 9.5939741,7.5222321 9.5939741,7.5222321 L 9.1073231,6.1178968 c 0,0 0.5084407,-0.6688054 0.6535025,-1.0567275 0.080598,-0.215534 0.09925,-0.451513 0.1112346,-0.6813114 C 9.884633,4.1387767 9.8856793,3.8918158 9.8303473,3.6568337 9.7979861,3.519403 9.7360638,3.3886258 9.6634955,3.2675131 9.6024821,3.165685 9.4410267,2.9894268 9.4410267,2.9894268 L 9.0656102,2.238594 Z"
         id="path7328"
         sodipodi:nodetypes="caaaaaaccaaaaccc" /><path
         style="fill:#808080;fill-opacity:1;stroke:#000000;stroke-width:0.132292;stroke-linecap:butt;stroke-linejoin:miter;stroke-dasharray:none;stroke-opacity:1"
         d="M 8.9682806,1.7658475 C 8.6167086,1.8135585 8.2427109,1.9038499 7.9671703,2.1273596 7.7004703,2.3436981 7.5033793,2.6690072 7.424902,3.0033312 7.3110789,3.4882327 7.464119,4.0031171 7.563945,4.4910925 7.66735,4.9965637 7.8510251,5.4835747 8.0366917,5.9649494 c 0.17765,0.4605903 0.4304161,0.8895812 0.6117896,1.348718 0.1114672,0.2821729 0.2426693,0.5627115 0.2919905,0.8620673 0.012055,0.07317 0,0.2224691 0,0.2224691 0,0 -0.1699152,0.090494 -0.2224688,0.1668518 C 8.660614,8.6484396 8.6157309,8.757591 8.634577,8.857046 8.653044,8.9545 8.725158,9.0521068 8.8153331,9.0934192 8.9588441,9.1591662 9.1414744,9.1241332 9.2880798,9.0656112 9.4683035,8.9936678 9.6348234,8.8575688 9.7330177,8.6901942 9.8811237,8.4377438 9.8968769,8.1208003 9.8998695,7.828127 9.9026585,7.5553583 9.8311158,7.2852484 9.7608262,7.021677 9.6425695,6.5782388 9.4449601,6.1598658 9.2880798,5.7285762 9.1111665,5.2422126 8.8444836,4.7791744 8.7597159,4.2686234 8.717957,4.017112 8.6761337,3.739467 8.7736197,3.5038863 8.8400469,3.3433611 8.9871512,3.2194793 9.1351318,3.1284701 9.2425265,3.0624216 9.496644,3.0172355 9.496644,3.0172355 c 0,0 0.1062159,-0.2259213 0.1251386,-0.3476077 C 9.6410242,2.5458903 9.6353232,2.4163915 9.6078788,2.2942113 9.5846713,2.1908936 9.5504577,2.08363 9.4827401,2.0022208 9.3972476,1.8994428 9.2754065,1.823374 9.1490365,1.7797518 9.0919141,1.7600335 9.0281617,1.7577212 8.9682806,1.7658475 Z"
         id="path7330"
         sodipodi:nodetypes="aaaaaaacaaaaaaaaaaacaaaaa" /></g></g></svg>
