<?xml version="1.0" encoding="UTF-8" standalone="no"?>
<!-- Created with Inkscape (http://www.inkscape.org/) -->

<svg
   width="180"
   height="256"
   viewBox="0 0 47.624982 67.733333"
   version="1.1"
   id="svg5"
   xml:space="preserve"
   sodipodi:docname="spider.svg"
   inkscape:version="1.2.1 (9c6d41e410, 2022-07-14)"
   xmlns:inkscape="http://www.inkscape.org/namespaces/inkscape"
   xmlns:sodipodi="http://sodipodi.sourceforge.net/DTD/sodipodi-0.dtd"
   xmlns="http://www.w3.org/2000/svg"
   xmlns:svg="http://www.w3.org/2000/svg"><sodipodi:namedview
     id="namedview7"
     pagecolor="#ffffff"
     bordercolor="#666666"
     borderopacity="1.0"
     inkscape:showpageshadow="2"
     inkscape:pageopacity="0.0"
     inkscape:pagecheckerboard="0"
     inkscape:deskcolor="#d1d1d1"
     inkscape:document-units="mm"
     showgrid="true"
     inkscape:zoom="2.3786088"
     inkscape:cx="-49.188416"
     inkscape:cy="125.28332"
     inkscape:window-width="1920"
     inkscape:window-height="1027"
     inkscape:window-x="-8"
     inkscape:window-y="-8"
     inkscape:window-maximized="1"
     inkscape:current-layer="g372"><inkscape:grid
       type="xygrid"
       id="grid1314"
       spacingx="2.6458328"
       spacingy="2.6458328"
       originx="23.812491"
       originy="33.866667" /></sodipodi:namedview><defs
     id="defs2"><filter
       inkscape:collect="always"
       style="color-interpolation-filters:sRGB"
       id="filter896"
       x="-0.031382201"
       y="-0.0236917"
       width="1.0627644"
       height="1.0473834"><feGaussianBlur
         inkscape:collect="always"
         stdDeviation="0.58932004"
         id="feGaussianBlur898" /></filter></defs><g
     inkscape:groupmode="layer"
     id="layer2"
     inkscape:label="shadow" /><path
     style="fill:#000000;stroke:none;stroke-width:0.264583px;stroke-linecap:butt;stroke-linejoin:miter;stroke-opacity:1;fill-opacity:1;opacity:0.5;filter:url(#filter896)"
     d="m 15.337659,5.6631355 -0.629238,5.5844805 1.494439,6.528337 4.326006,5.741791 6.606991,0.786546 2.359641,-7.708157 0.707893,-9.1239402 0.314619,-3.6181143 0.943853,0.9438558 0.471929,5.5844807 -0.15731,6.685646 -3.854077,10.303762 7.550848,-0.943857 5.505826,-2.202331 2.438294,-1.809057 0.157308,1.17982 -2.202331,2.35964 -5.663133,3.53946 -7.472193,0.943856 0.8652,2.202331 7.393538,4.483314 9.831832,5.8991 -1.337128,0.235963 -6.449681,-2.752912 -11.247618,-6.60699 1.022512,3.38215 3.303495,10.697033 1.809056,7.944122 1.730405,7.078919 -1.730405,-1.887712 -2.438294,-8.022775 -2.438294,-6.292374 -5.269862,-8.337394 -3.382151,6.371027 -1.17982,5.427173 -2.35964,7.550846 -2.674258,5.741791 0.471928,-3.775424 3.067532,-15.18035 3.539459,-11.011651 -9.831832,1.415783 -4.3260064,0.157311 -5.1912077,-1.494441 -0.078655,-0.550582 3.6181144,-0.07866 5.3485167,0.393274 9.202596,-2.516949 -9.9104878,-3.539458 -4.7979342,-2.280986 -3.5394597,-2.988877 1.2584746,0.314618 3.6181143,1.730403 5.9777548,1.809057 6.528336,0.471928 -4.168696,-7.157574 -1.33713,-7.708157 0.786547,-5.505826 z"
     id="path340" /><g
     inkscape:label="spider"
     inkscape:groupmode="layer"
     id="layer1"><g
       id="g372"
       style="opacity:1;stroke:#000000;stroke-opacity:1;stroke-width:0.1;stroke-dasharray:none"><path
         style="fill:#371414;stroke:#000000;stroke-width:0.1;stroke-linecap:butt;stroke-linejoin:miter;stroke-opacity:1;fill-opacity:1;stroke-dasharray:none"
         d="m 28.513138,27.591141 c 0.630625,-0.3375 1.461188,-0.360606 2.141264,-0.139043 0.413018,0.134558 0.802957,0.447703 1.001109,0.834259 0.237397,0.463116 0.362708,1.101657 0.111236,1.557284 -0.29457,0.533715 -1.01047,0.768788 -1.6129,0.862065 -0.65219,0.100982 -1.406869,0.01827 -1.946604,-0.361511 -0.421268,-0.296426 -0.810756,-0.820711 -0.778641,-1.334815 0.0371,-0.593972 0.559825,-1.137422 1.084536,-1.418239 z"
         id="path1047"
         sodipodi:nodetypes="aaaaaaaa" /><path
         style="fill:#371414;stroke:#000000;stroke-width:0.1;stroke-linecap:butt;stroke-linejoin:miter;stroke-opacity:1;fill-opacity:1;stroke-dasharray:none"
         d="m 28.040392,24.532193 c 0.249116,-0.350622 0.609089,-0.685163 1.028918,-0.778642 0.434773,-0.09681 0.931059,0.03921 1.307005,0.278087 0.323906,0.205814 0.599929,0.545939 0.695217,0.917684 0.141919,0.553664 0.100202,1.244831 -0.250279,1.696326 -0.382144,0.492284 -1.103003,0.773771 -1.724132,0.723024 -0.643405,-0.05257 -1.419904,-0.422307 -1.64071,-1.028919 -0.216577,-0.594993 0.217245,-1.291394 0.583981,-1.80756 z"
         id="path1049"
         sodipodi:nodetypes="aaaaaaaa" /><path
         style="fill:#371414;stroke:#000000;stroke-width:0.1;stroke-linecap:butt;stroke-linejoin:miter;stroke-opacity:1;fill-opacity:1;stroke-dasharray:none"
         d="m 28.513138,31.762433 c 0.613231,-0.02531 1.14834,0.4529 1.668518,0.778643 0.485883,0.304267 0.98589,0.62966 1.334814,1.084537 0.290428,0.378618 0.639363,0.833051 0.58398,1.307005 -0.06907,0.591108 -0.518003,1.235978 -1.084537,1.418238 -0.63644,0.20475 -1.37133,-0.200232 -1.918793,-0.58398 -0.683145,-0.478855 -1.222687,-1.215991 -1.501667,-2.002222 -0.161307,-0.454602 -0.289672,-1.024263 -0.05562,-1.446048 0.181308,-0.326735 0.599955,-0.54076 0.973305,-0.556173 z"
         id="path1051"
         sodipodi:nodetypes="aaaaaaaaa" /><path
         style="fill:#371414;stroke:#000000;stroke-width:0.1;stroke-linecap:butt;stroke-linejoin:miter;stroke-opacity:1;fill-opacity:1;stroke-dasharray:none"
         d="m 27.054307,34.57978 c 0.772455,0.168306 1.337659,0.899103 1.809056,1.533766 0.392077,0.527871 0.74504,1.15282 0.786548,1.809059 0.04137,0.654148 -0.07636,1.435239 -0.550582,1.88771 -0.282952,0.269971 -0.759281,0.362598 -1.140494,0.275293 -0.644639,-0.147635 -1.138242,-0.728459 -1.533766,-1.258474 -0.484892,-0.649771 -0.858762,-1.435383 -0.943856,-2.241659 -0.05883,-0.557386 -0.06431,-1.238769 0.314619,-1.651749 0.294612,-0.321087 0.832697,-0.446716 1.258475,-0.353946 z"
         id="path1059"
         sodipodi:nodetypes="aaaaaaaaa" /><path
         style="fill:#371414;stroke:#000000;stroke-width:0.1;stroke-linecap:butt;stroke-linejoin:miter;stroke-opacity:1;fill-opacity:1;stroke-dasharray:none"
         d="m 18.973924,27.591141 c -0.630625,-0.3375 -1.461188,-0.360606 -2.141264,-0.139043 -0.413019,0.134558 -0.802958,0.447703 -1.00111,0.834259 -0.237397,0.463116 -0.362707,1.101657 -0.111236,1.557284 0.29457,0.533715 1.010471,0.768788 1.612901,0.862065 0.652191,0.100982 1.406869,0.01827 1.946604,-0.361511 0.421268,-0.296426 0.810756,-0.820711 0.778641,-1.334815 -0.0371,-0.593972 -0.559825,-1.137422 -1.084536,-1.418239 z"
         id="path1214"
         sodipodi:nodetypes="aaaaaaaa" /><path
         style="fill:#371414;stroke:#000000;stroke-width:0.1;stroke-linecap:butt;stroke-linejoin:miter;stroke-opacity:1;fill-opacity:1;stroke-dasharray:none"
         d="m 19.446671,24.532193 c -0.249116,-0.350622 -0.609089,-0.685163 -1.028918,-0.778642 -0.434773,-0.09681 -0.931059,0.03921 -1.307005,0.278087 -0.323906,0.205814 -0.599929,0.545939 -0.695218,0.917684 -0.141919,0.553664 -0.100202,1.244831 0.25028,1.696326 0.382143,0.492284 1.103002,0.773771 1.724132,0.723024 0.643406,-0.05257 1.419904,-0.422307 1.64071,-1.028919 0.216577,-0.594993 -0.217245,-1.291394 -0.583981,-1.80756 z"
         id="path1216"
         sodipodi:nodetypes="aaaaaaaa" /><path
         style="fill:#371414;stroke:#000000;stroke-width:0.1;stroke-linecap:butt;stroke-linejoin:miter;stroke-opacity:1;fill-opacity:1;stroke-dasharray:none"
         d="m 18.973924,31.762433 c -0.613231,-0.02531 -1.14834,0.4529 -1.668517,0.778643 -0.485883,0.304267 -0.985891,0.62966 -1.334816,1.084537 -0.290426,0.378618 -0.639362,0.833051 -0.58398,1.307005 0.06907,0.591108 0.518003,1.235978 1.084538,1.418238 0.63644,0.20475 1.37133,-0.200232 1.918793,-0.58398 0.683145,-0.478855 1.222687,-1.215991 1.501668,-2.002222 0.161307,-0.454602 0.289671,-1.024263 0.05562,-1.446048 -0.181309,-0.326735 -0.599956,-0.54076 -0.973306,-0.556173 z"
         id="path1218"
         sodipodi:nodetypes="aaaaaaaaa" /><path
         style="fill:#371414;stroke:#000000;stroke-width:0.1;stroke-linecap:butt;stroke-linejoin:miter;stroke-opacity:1;fill-opacity:1;stroke-dasharray:none"
         d="m 20.432755,34.57978 c -0.772455,0.168306 -1.337658,0.899103 -1.809056,1.533766 -0.392077,0.527871 -0.74504,1.15282 -0.786548,1.809059 -0.04137,0.654148 0.07636,1.435239 0.550582,1.88771 0.282952,0.269971 0.759281,0.362598 1.140494,0.275293 0.64464,-0.147635 1.138242,-0.728459 1.533766,-1.258474 0.484892,-0.649771 0.858762,-1.435383 0.943856,-2.241659 0.05883,-0.557386 0.06431,-1.238769 -0.314619,-1.651749 -0.294612,-0.321087 -0.832697,-0.446716 -1.258475,-0.353946 z"
         id="path1226"
         sodipodi:nodetypes="aaaaaaaaa" /><path
         style="fill:#553232;stroke:#000000;stroke-width:0.1;stroke-linecap:butt;stroke-linejoin:miter;stroke-opacity:1;fill-opacity:1;stroke-dasharray:none"
         d="m 24.564313,20.861455 c 1.062122,0.130753 2.32802,0.05301 3.114566,0.778641 1.150498,1.061402 1.206204,2.9122 1.501668,4.44938 0.322416,1.677408 0.448893,3.417236 0.278085,5.116787 -0.139841,1.391432 -0.354558,2.85068 -1.056728,4.060058 -0.546362,0.941024 -1.360744,1.797541 -2.335924,2.280306 -0.570972,0.282661 -1.254951,0.315054 -1.890986,0.278088 -0.785658,-0.04566 -1.612566,-0.195299 -2.280307,-0.611791 -1.148294,-0.716229 -2.045215,-1.858252 -2.669628,-3.058948 -0.607849,-1.168842 -0.804438,-2.527712 -0.945493,-3.837588 -0.146938,-1.364505 -0.08858,-2.757908 0.111234,-4.115678 0.226555,-1.539487 0.114373,-3.413663 1.22358,-4.504996 0.804497,-0.791534 2.161548,-0.694132 3.281417,-0.834259 0.551869,-0.06905 1.116512,-0.06796 1.668516,0 z"
         id="path935"
         sodipodi:nodetypes="aaaaaaaaaaaaaa" /><path
         style="fill:#745f5f;stroke:#000000;stroke-width:0.1;stroke-linecap:butt;stroke-linejoin:miter;stroke-opacity:1;fill-opacity:1;stroke-dasharray:none"
         d="m 23.883002,52.563284 c 0.08016,0.287986 0.355197,0.493496 0.444938,0.778642 0.09221,0.292989 0.119657,0.612672 0.08343,0.917684 -0.03233,0.272166 -0.2773,0.504877 -0.264182,0.778642 0.0049,0.101532 0.125139,0.278085 0.125139,0.278085 0,0 0.440672,-0.267352 0.583981,-0.472747 0.263343,-0.377431 0.4018,-0.848809 0.444939,-1.307004 0.04036,-0.428739 0.03138,-0.904435 -0.180756,-1.279197 -0.17044,-0.301106 -0.46047,-0.656935 -0.806451,-0.653503 -0.194043,0.0019 -0.365266,0.198474 -0.444938,0.375418 -0.07994,0.177548 -0.03831,0.396396 0.0139,0.58398 z"
         id="path1172"
         sodipodi:nodetypes="aaaacaaaaaa" /><path
         style="fill:#745f5f;stroke:#000000;stroke-width:0.1;stroke-linecap:butt;stroke-linejoin:miter;stroke-opacity:1;fill-opacity:1;stroke-dasharray:none"
         d="m 23.688342,52.771847 c 0.0031,0.239244 -0.225242,0.431335 -0.264182,0.667409 -0.04531,0.274721 -0.02552,0.564064 0.04171,0.834258 0.05808,0.2334 0.299653,0.413066 0.305895,0.653502 0.0042,0.160031 -0.180756,0.444939 -0.180756,0.444939 0,0 -0.659102,-0.484197 -0.875972,-0.820354 -0.265385,-0.411357 -0.50215,-0.901783 -0.472746,-1.390433 0.02378,-0.395225 0.212596,-0.814413 0.514459,-1.070631 0.150952,-0.128127 0.391072,-0.251468 0.570077,-0.166851 0.277851,0.131342 0.357519,0.540856 0.361515,0.848161 z"
         id="path1174"
         sodipodi:nodetypes="aaaacaaaaa" /><path
         style="fill:#5e3030;stroke:#000000;stroke-width:0.1;stroke-linecap:butt;stroke-linejoin:miter;stroke-opacity:1;fill-opacity:1;stroke-dasharray:none"
         d="m 29.48644,23.475466 c 0.633546,-1.194933 1.683356,-2.137485 2.308116,-3.337035 0.56631,-1.087328 0.496177,-2.50494 1.279196,-3.448269 0.276175,-0.332715 0.682526,-0.620225 1.112346,-0.667407 0.349654,-0.03838 0.757303,0.08015 1.001109,0.333703 0.414788,0.431374 0.469312,1.126509 0.500554,1.724135 0.04917,0.940567 -0.171626,1.898315 -0.500554,2.780862 -0.444154,1.191708 -1.133049,2.303884 -1.946603,3.281417 -0.684999,0.823066 -1.487159,1.586499 -2.419348,2.113456 -0.23733,0.134161 -0.50606,0.255122 -0.778643,0.250277 -0.354738,-0.0063 -0.788091,-0.07778 -1.00111,-0.361512 -0.262108,-0.349113 -0.149998,-0.875555 -0.08343,-1.307005 0.07428,-0.481462 0.30017,-0.932216 0.528367,-1.362622 z"
         id="path1035"
         sodipodi:nodetypes="aaaaaaaaaaaaa" /><path
         style="fill:#323232;stroke:#000000;stroke-width:0.1;stroke-linecap:butt;stroke-linejoin:miter;stroke-opacity:1;stroke-dasharray:none;fill-opacity:1"
         d="m 33.12937,7.7079764 c 0.125985,0.1147616 0.30239,0.1900655 0.472747,0.1946603 0.196346,0.0053 0.416154,-0.05691 0.55617,-0.1946603 C 34.292085,7.5763439 34.371209,7.3664165 34.352949,7.1796127 34.290623,6.5419791 33.798006,5.9986804 33.351838,5.538904 32.642803,4.8082457 31.808666,3.9473226 30.793447,3.8703866 30.681763,3.8619266 30.48755,4.0094298 30.48755,4.0094298 c 0,0 6.8e-5,0.2529816 0.05562,0.361512 0.367355,0.7176826 1.243524,1.0489991 1.724134,1.6963261 0.368279,0.4960305 0.405346,1.2246762 0.862065,1.6407085 z"
         id="path1039"
         sodipodi:nodetypes="aaaaaacaaa" /><path
         style="fill:#4d3838;stroke:#000000;stroke-width:0.1;stroke-linecap:butt;stroke-linejoin:miter;stroke-opacity:1;fill-opacity:1;stroke-dasharray:none"
         d="m 33.045945,7.5967421 c -0.152696,1.4236712 0.307385,2.8509329 0.333703,4.2825279 0.03325,1.808775 -0.759247,3.695069 -0.22247,5.422681 0.123768,0.398344 0.389297,0.793051 0.750832,1.001111 0.275043,0.158285 0.644915,0.213 0.945494,0.111234 0.403593,-0.136643 0.731608,-0.506557 0.917686,-0.889876 0.23604,-0.486239 0.162692,-1.072414 0.166852,-1.6129 0.01304,-1.693513 -0.180219,-3.388423 -0.444939,-5.061169 C 35.305765,9.6665843 35.415329,8.2980037 34.686652,7.3464642 34.495035,7.0962418 34.164564,6.944865 33.852395,6.9015264 c -0.216107,-0.030002 -0.47947,-0.00915 -0.639599,0.139043 -0.142056,0.1314657 -0.14621,0.3637227 -0.166851,0.5561727 z"
         id="path1037"
         sodipodi:nodetypes="aaaaaaaaaaaa" /><path
         style="fill:#5e3030;stroke:#000000;stroke-width:0.1;stroke-linecap:butt;stroke-linejoin:miter;stroke-opacity:1;fill-opacity:1;stroke-dasharray:none"
         d="m 31.714165,27.960552 c 1.368163,0.473015 2.181025,1.990459 3.517153,2.547574 0.412092,0.171828 0.923084,0.01641 1.321638,0.217653 0.478282,0.241498 0.999657,0.60745 1.151773,1.121195 0.113195,0.382291 -0.05606,0.826669 -0.264651,1.166448 -0.24638,0.401332 -0.63542,0.769109 -1.087126,0.902272 -0.421278,0.124192 -0.882016,-0.05091 -1.308231,-0.156933 -0.444075,-0.110434 -0.849539,-0.341086 -1.280789,-0.494128 -0.64792,-0.229936 -1.390373,-0.254412 -1.961795,-0.636704 -0.756795,-0.506307 -1.403873,-1.246514 -1.770952,-2.079783 -0.216517,-0.491496 -0.342835,-1.080978 -0.200125,-1.598745 0.115751,-0.420111 0.408803,-0.84727 0.804033,-1.030808 0.326477,-0.151612 0.738869,-0.07566 1.079072,0.04196 z"
         id="path1041"
         sodipodi:nodetypes="aaaaaaaaaaaaa"
         inkscape:transform-center-x="-2.6910357"
         inkscape:transform-center-y="1.6353296" /><path
         style="fill:#323232;stroke:#000000;stroke-width:0.1;stroke-linecap:butt;stroke-linejoin:miter;stroke-opacity:1;stroke-dasharray:none;fill-opacity:1"
         d="m 42.521295,26.044023 c -0.110269,-0.526695 0.11541,-1.072157 0.230765,-1.597759 0.131284,-0.598185 0.177287,-1.255742 0.523001,-1.761253 0.07866,-0.115032 0.330317,-0.256247 0.330317,-0.256247 0,0 0.317022,0.284141 0.388129,0.476168 0.221441,0.598034 0.101664,1.277031 0.04854,1.912529 -0.0415,0.496415 0.02001,1.073415 -0.285436,1.466927 -0.18971,0.244396 -0.541797,0.484971 -0.838626,0.397727 -0.240284,-0.07063 -0.345362,-0.392961 -0.396679,-0.638095 z"
         id="path1045"
         sodipodi:nodetypes="aaacaaaaa"
         inkscape:transform-center-x="-0.17344911"
         inkscape:transform-center-y="-1.4149249" /><path
         style="fill:#4d3838;stroke:#000000;stroke-width:0.1;stroke-linecap:butt;stroke-linejoin:miter;stroke-opacity:1;fill-opacity:1;stroke-dasharray:none"
         d="m 36.038204,31.377388 c -0.08298,0.335994 -0.0067,0.739112 0.196066,1.019589 0.192844,0.266762 0.537172,0.430101 0.862358,0.481139 0.453269,0.07114 0.961535,-0.02551 1.349684,-0.270157 0.901637,-0.568308 1.186138,-1.783548 1.918521,-2.557844 0.764371,-0.808114 1.860425,-1.278082 2.554118,-2.147625 0.308337,-0.3865 0.610114,-0.829313 0.678511,-1.318983 0.05441,-0.389492 0.06385,-0.897267 -0.231564,-1.156871 -0.224549,-0.197331 -0.61968,-0.178752 -0.894685,-0.06156 -0.361992,0.154266 -0.496895,0.610547 -0.757247,0.905593 -0.654987,0.742266 -1.267712,1.534399 -2.023477,2.173764 -0.843569,0.713647 -1.950952,1.080348 -2.767036,1.825266 -0.349093,0.318651 -0.771918,0.648821 -0.885249,1.107689 z"
         id="path1043"
         sodipodi:nodetypes="aaaaaaaaaaaaa"
         inkscape:transform-center-x="-2.6893166"
         inkscape:transform-center-y="-2.7857824" /><path
         style="fill:#5e3030;stroke:#000000;stroke-width:0.1;stroke-linecap:butt;stroke-linejoin:miter;stroke-opacity:1;fill-opacity:1;stroke-dasharray:none"
         d="m 30.821253,34.265212 c 0.451509,-0.05199 0.946222,0.04238 1.334816,0.278085 0.675856,0.40995 1.076603,1.168912 1.501664,1.835369 0.481542,0.755016 1.195484,1.524266 1.167963,2.41935 -0.01339,0.435561 -0.306897,0.858723 -0.639598,1.140153 -0.293255,0.248062 -0.702165,0.352953 -1.084539,0.389321 -0.298875,0.02843 -0.637474,0.02352 -0.889874,-0.139043 -0.652753,-0.420428 -0.915839,-1.260442 -1.279198,-1.946603 -0.464835,-0.877788 -1.085509,-1.761288 -1.140153,-2.753053 -0.01646,-0.298768 0.05538,-0.635022 0.250277,-0.862069 0.186384,-0.217133 0.494363,-0.328778 0.778642,-0.36151 z"
         id="path1053"
         sodipodi:nodetypes="aaaaaaaaaaa" /><path
         style="fill:#323232;stroke:#000000;stroke-width:0.1;stroke-linecap:butt;stroke-linejoin:miter;stroke-opacity:1;stroke-dasharray:none;fill-opacity:1"
         d="m 37.884644,41.272984 c 0.642188,-0.19297 1.332809,-0.233784 2.002221,-0.194662 1.003723,0.05866 1.969778,0.406052 2.947713,0.639599 0.857232,0.204721 1.75535,0.304254 2.558394,0.667406 0.377153,0.170556 1.028919,0.695217 1.028919,0.695217 -0.663093,0.624034 -1.429312,0.503089 -1.751945,0.58398 -0.981249,0.05805 -1.973337,0.04621 -2.947715,-0.08343 -1.020717,-0.135804 -2.05643,-0.318442 -3.00333,-0.723024 -0.425606,-0.181848 -0.900324,-0.373235 -1.167961,-0.750832 -0.115712,-0.163253 -0.221565,-0.401686 -0.139044,-0.58398 0.07353,-0.162435 0.301988,-0.198962 0.472748,-0.250274 z"
         id="path1057"
         sodipodi:nodetypes="aaaaccaaaaa" /><path
         style="fill:#5e3030;stroke:#000000;stroke-width:0.1;stroke-linecap:butt;stroke-linejoin:miter;stroke-opacity:1;fill-opacity:1;stroke-dasharray:none"
         d="m 28.12353,38.136345 c 0.356577,-0.225967 0.88469,-0.03723 1.25577,0.164041 1.007877,0.546653 1.554044,1.692378 2.233623,2.61586 0.680287,0.924446 1.354836,1.871111 1.835095,2.91358 0.296246,0.643055 0.748948,1.330302 0.63043,2.028325 -0.07245,0.426692 -0.365262,0.89813 -0.773024,1.043203 -0.366603,0.130387 -0.805537,-0.07519 -1.131171,-0.288171 -0.687063,-0.449372 -1.034584,-1.276186 -1.513579,-1.942936 -0.673503,-0.937502 -1.367272,-1.869918 -1.909762,-2.888849 -0.413914,-0.777431 -0.978584,-1.559459 -1.015185,-2.43945 -0.01754,-0.421782 0.03123,-0.979635 0.387803,-1.205603 z"
         id="path1061"
         sodipodi:nodetypes="aaaaaaaaaaa"
         inkscape:transform-center-x="-2.585068"
         inkscape:transform-center-y="3.407783" /><path
         style="fill:#4d3838;stroke:#000000;stroke-width:0.1;stroke-linecap:butt;stroke-linejoin:miter;stroke-opacity:1;fill-opacity:1;stroke-dasharray:none"
         d="m 33.824584,38.71459 c 0.563589,0.04935 1.12276,0.245821 1.612901,0.528363 0.506195,0.291796 0.80317,0.872114 1.307007,1.167963 0.465128,0.27312 1.137172,0.158175 1.529474,0.528363 0.247892,0.23392 0.445003,0.609236 0.389319,0.945493 -0.06439,0.38885 -0.40688,0.758936 -0.778641,0.889876 -0.452787,0.159479 -0.962814,-0.0985 -1.418241,-0.250277 -0.778708,-0.259513 -1.494369,-0.687831 -2.19688,-1.112346 -0.506318,-0.305959 -1.182409,-0.499328 -1.446048,-1.028916 -0.144644,-0.290555 -0.06738,-0.663009 0.02781,-0.973305 0.07089,-0.231091 0.186208,-0.480742 0.389321,-0.611788 0.165231,-0.106604 0.388092,-0.100577 0.583979,-0.08343 z"
         id="path1055"
         sodipodi:nodetypes="aaaaaaaaaaaa" /><path
         style="fill:#323232;stroke:#000000;stroke-width:0.1;stroke-linecap:butt;stroke-linejoin:miter;stroke-opacity:1;stroke-dasharray:none;fill-opacity:1"
         d="m 35.47106,51.50046 c 0.490882,0.307941 0.609623,1.01548 0.712345,1.585778 0.193309,1.073232 -0.08422,2.181802 -0.215036,3.26443 -0.130755,1.082159 -0.422964,2.140025 -0.568421,3.220307 -0.14844,1.102394 0.379908,2.34698 -0.309839,3.322618 -1.16351,-0.608729 -1.179713,-2.546037 -1.327289,-3.916567 -0.103228,-0.958668 0.294484,-1.910678 0.323907,-2.87444 0.03544,-1.160929 -0.39821,-2.339401 -0.178228,-3.479849 0.07596,-0.393802 0.169319,-0.871606 0.504059,-1.09251 0.294606,-0.194416 0.75949,-0.217334 1.058503,-0.02977 z"
         id="path1065"
         sodipodi:nodetypes="aaaacaaaaa"
         inkscape:transform-center-x="-0.049154586"
         inkscape:transform-center-y="4.8155043" /><path
         style="fill:#4d3838;stroke:#000000;stroke-width:0.1;stroke-linecap:butt;stroke-linejoin:miter;stroke-opacity:1;fill-opacity:1;stroke-dasharray:none"
         d="m 33.048524,45.205804 c 0.415661,-0.02818 0.882056,0.142152 1.167822,0.445308 0.69569,0.738039 0.6799,1.915316 0.914398,2.902077 0.262081,1.102826 0.863472,2.268112 0.54647,3.356424 -0.09332,0.32039 -0.339162,0.681381 -0.66632,0.747154 -0.293352,0.05898 -0.59817,-0.175618 -0.809964,-0.386988 -0.341178,-0.340494 -0.445319,-0.856651 -0.626025,-1.303511 -0.509055,-1.258822 -1.082279,-2.523006 -1.284642,-3.865696 -0.07447,-0.494116 -0.227215,-1.071816 0.03247,-1.498737 0.143222,-0.235465 0.450819,-0.377415 0.725793,-0.396031 z"
         id="path1063"
         sodipodi:nodetypes="aaaaaaaaaa"
         inkscape:transform-center-x="-0.74787019"
         inkscape:transform-center-y="2.7909044" /><path
         style="fill:#5e3030;stroke:#000000;stroke-width:0.1;stroke-linecap:butt;stroke-linejoin:miter;stroke-opacity:1;fill-opacity:1;stroke-dasharray:none"
         d="m 17.591163,23.431774 c -0.860021,-1.043843 -2.077329,-1.757053 -2.929666,-2.807179 -0.772598,-0.951884 -0.987793,-2.354821 -1.943871,-3.122222 -0.337212,-0.270665 -0.792911,-0.47097 -1.223473,-0.431115 -0.350256,0.03242 -0.725908,0.230192 -0.913996,0.527436 -0.319993,0.505705 -0.234196,1.197676 -0.145119,1.789451 0.140195,0.931359 0.548327,1.825485 1.047341,2.624277 0.673821,1.078613 1.571495,2.030291 2.56434,2.825088 0.835958,0.669205 1.774761,1.256522 2.7936,1.586112 0.259389,0.08391 0.5469,0.148604 0.81299,0.08927 0.346291,-0.07722 0.756548,-0.234037 0.908428,-0.554682 0.18688,-0.394533 -0.02839,-0.887857 -0.180016,-1.297234 -0.169198,-0.456832 -0.480785,-0.853215 -0.790558,-1.229199 z"
         id="path1202"
         sodipodi:nodetypes="aaaaaaaaaaaaa"
         inkscape:transform-center-x="3.08607"
         inkscape:transform-center-y="-3.6763863" /><path
         style="fill:#323232;stroke:#000000;stroke-width:0.1;stroke-linecap:butt;stroke-linejoin:miter;stroke-opacity:1;stroke-dasharray:none;fill-opacity:1"
         d="M 12.175632,8.7997765 C 12.033364,8.8935974 11.84741,8.9406145 11.678404,8.9187174 11.483614,8.8934841 11.276122,8.7979177 11.159179,8.6401083 11.047428,8.4893074 11.001841,8.2696447 11.048867,8.0879374 c 0.160523,-0.620237 0.731478,-1.0805101 1.243591,-1.46548 0.813829,-0.6117787 1.771461,-1.3328303 2.786323,-1.2512915 0.111644,0.00897 0.280614,0.184828 0.280614,0.184828 0,0 -0.03932,0.2499069 -0.111043,0.3485027 C 14.774074,6.5564779 13.857104,6.747816 13.281864,7.31272 12.841071,7.7455916 12.69138,8.4596585 12.175633,8.7997767 Z"
         id="path1206"
         sodipodi:nodetypes="aaaaaacaaa"
         inkscape:transform-center-x="-1.3992031"
         inkscape:transform-center-y="-1.2028899" /><path
         style="fill:#4d3838;stroke:#000000;stroke-width:0.1;stroke-linecap:butt;stroke-linejoin:miter;stroke-opacity:1;fill-opacity:1;stroke-dasharray:none"
         d="m 12.338328,8.5962725 c 0.226412,1.4138225 -0.158939,2.8630475 -0.110887,4.2940775 0.06071,1.808062 0.950087,3.650661 0.503739,5.403815 -0.102915,0.404234 -0.347593,0.812195 -0.697837,1.038747 -0.266454,0.172353 -0.632986,0.246199 -0.938443,0.160178 -0.410144,-0.115503 -0.756924,-0.467886 -0.962654,-0.841026 -0.260969,-0.473327 -0.2181567,-1.062519 -0.2503754,-1.60206 -0.1009567,-1.690551 0.00403,-3.39321 0.1815414,-5.077445 0.125618,-1.191897 -0.05486,-2.5529422 0.623425,-3.5410342 0.178366,-0.2598344 0.500531,-0.4281666 0.810029,-0.4876559 0.214257,-0.041183 0.478348,-0.034034 0.645955,0.1056448 0.148691,0.1239122 0.1649,0.3556401 0.195507,0.5467588 z"
         id="path1204"
         sodipodi:nodetypes="aaaaaaaaaaaa"
         inkscape:transform-center-x="0.22401106"
         inkscape:transform-center-y="-4.2992109" /><path
         style="fill:#5e3030;stroke:#000000;stroke-width:0.1;stroke-linecap:butt;stroke-linejoin:miter;stroke-opacity:1;fill-opacity:1;stroke-dasharray:none"
         d="m 16.109635,27.841419 c -1.442209,0.12507 -2.600599,1.398457 -4.03225,1.6129 -0.441555,0.06614 -0.899215,-0.209203 -1.334815,-0.111236 -0.522734,0.117564 -1.1176141,0.345315 -1.3904288,0.80645 -0.203009,0.343143 -0.147239,0.815381 -0.02781,1.195771 0.141065,0.449301 0.4286657,0.900851 0.8342578,1.140154 0.378271,0.223183 0.867801,0.165727 1.307003,0.166854 0.457599,0.0012 0.907071,-0.123605 1.362623,-0.166854 0.684433,-0.06498 1.410438,0.09235 2.05784,-0.139042 0.857421,-0.306455 1.665481,-0.866504 2.224691,-1.585092 0.329846,-0.423852 0.59611,-0.964729 0.583981,-1.501666 -0.0098,-0.435656 -0.189831,-0.921386 -0.528366,-1.19577 -0.279645,-0.226654 -0.698107,-0.253569 -1.056726,-0.222469 z"
         id="path1208"
         sodipodi:nodetypes="aaaaaaaaaaaaa" /><path
         style="fill:#323232;stroke:#000000;stroke-width:0.1;stroke-linecap:butt;stroke-linejoin:miter;stroke-opacity:1;stroke-dasharray:none;fill-opacity:1"
         d="M 4.1241212,24.476576 C 3.9211122,23.978226 3.4290616,23.652119 3.039587,23.280805 2.5963294,22.858215 2.1905914,22.338721 1.621347,22.112843 c -0.1295269,-0.0514 -0.417129,-0.02781 -0.417129,-0.02781 0,0 -0.104014,0.41282 -0.05562,0.61179 0.1507131,0.61965 0.6296067,1.115678 1.0289194,1.6129 0.31192,0.388401 0.5834807,0.901204 1.0567262,1.056728 0.293922,0.09659 0.7203436,0.09923 0.9176856,-0.139044 0.1597481,-0.192886 0.06668,-0.518889 -0.02781,-0.750831 z"
         id="path1212"
         sodipodi:nodetypes="aaacaaaaa" /><path
         style="fill:#4d3838;stroke:#000000;stroke-width:0.1;stroke-linecap:butt;stroke-linejoin:miter;stroke-opacity:1;fill-opacity:1;stroke-dasharray:none"
         d="m 10.96504,29.760215 c 0.101545,0.330858 0.0478,0.737595 -0.139044,1.028917 -0.177705,0.277077 -0.512414,0.459316 -0.8342571,0.528365 -0.4486097,0.09624 -0.9614644,0.02802 -1.3626214,-0.194659 C 7.6972641,30.605566 7.3456027,29.408034 6.5712807,28.675677 5.7631402,27.911334 4.6426402,27.503064 3.9016512,26.673457 3.5722916,26.304707 3.2463496,25.879367 3.15082,25.39426 3.07483,25.008397 3.037157,24.501934 3.3176716,24.226298 c 0.213224,-0.209516 0.6087766,-0.212946 0.8898746,-0.111234 0.370014,0.133885 0.530088,0.581961 0.8064503,0.862067 0.6952627,0.704682 1.3511034,1.461504 2.1412642,2.057838 0.8819611,0.665615 2.0080275,0.970147 2.8642863,1.668516 0.366278,0.298738 0.806813,0.604876 0.945493,1.05673 z"
         id="path1210"
         sodipodi:nodetypes="aaaaaaaaaaaaa" /><path
         style="fill:#5e3030;stroke:#000000;stroke-width:0.1;stroke-linecap:butt;stroke-linejoin:miter;stroke-opacity:1;fill-opacity:1;stroke-dasharray:none"
         d="m 17.023793,34.432338 c -0.420249,-0.173073 -0.921954,-0.217101 -1.360075,-0.09622 -0.761999,0.210238 -1.354418,0.831254 -1.94502,1.356641 -0.669081,0.5952 -1.565643,1.140759 -1.783104,2.009461 -0.105821,0.422723 0.06125,0.909857 0.304659,1.271306 0.214549,0.318593 0.579394,0.530955 0.937383,0.670156 0.279813,0.108807 0.606934,0.196362 0.894084,0.10874 0.742624,-0.226617 1.224683,-0.963134 1.761289,-1.524294 0.686464,-0.717878 1.524426,-1.398781 1.84729,-2.338112 0.09726,-0.282973 0.119781,-0.626077 -0.0059,-0.897645 -0.120153,-0.25971 -0.386046,-0.451063 -0.650644,-0.560031 z"
         id="path1220"
         sodipodi:nodetypes="aaaaaaaaaaa"
         inkscape:transform-center-x="1.4110362"
         inkscape:transform-center-y="1.3905398" /><path
         style="fill:#323232;stroke:#000000;stroke-width:0.1;stroke-linecap:butt;stroke-linejoin:miter;stroke-opacity:1;stroke-dasharray:none;fill-opacity:1"
         d="M 8.4579981,38.247062 C 8.1642068,37.644295 7.7257605,37.109143 7.2429621,36.643796 6.5190505,35.946048 5.6085267,35.471821 4.7736,34.911646 4.0417233,34.420612 3.3594085,33.828185 2.5478722,33.484432 2.1667329,33.322982 1.339126,33.199942 1.339126,33.199942 c -0.00877,0.910512 0.5998087,1.391495 0.7592073,1.683433 0.62291,0.760395 1.3045266,1.481349 2.0606914,2.10939 0.7921242,0.65791 1.6288343,1.295071 2.5683882,1.71643 0.4223015,0.189394 0.8849276,0.408399 1.3439203,0.348939 0.1984435,-0.02571 0.4454423,-0.10965 0.5234195,-0.293934 0.069483,-0.164207 -0.058636,-0.356854 -0.1367565,-0.517133 z"
         id="path1224"
         sodipodi:nodetypes="aaaaccaaaaa"
         inkscape:transform-center-x="2.8680993"
         inkscape:transform-center-y="-2.1730815" /><path
         style="fill:#4d3838;stroke:#000000;stroke-width:0.1;stroke-linecap:butt;stroke-linejoin:miter;stroke-opacity:1;fill-opacity:1;stroke-dasharray:none"
         d="m 13.218447,38.050067 c -0.505022,-0.254992 -1.083802,-0.382607 -1.649259,-0.400698 -0.583977,-0.01869 -1.14214,0.318089 -1.7262484,0.30409 -0.5392331,-0.01292 -1.0498744,-0.464698 -1.5783489,-0.356749 -0.3339407,0.06821 -0.6992163,0.283361 -0.8290495,0.5985 -0.1501444,0.364427 -0.054032,0.859428 0.1929566,1.166588 0.3008213,0.374107 0.870238,0.423554 1.3372932,0.534501 0.7985904,0.189699 1.632531,0.202713 2.453291,0.212027 0.591543,0.0067 1.268065,0.19857 1.771167,-0.112649 0.276024,-0.170749 0.406587,-0.528023 0.489165,-0.841912 0.06153,-0.233757 0.09502,-0.506711 -0.0086,-0.725108 -0.08427,-0.177662 -0.276867,-0.289957 -0.452394,-0.37859 z"
         id="path1222"
         sodipodi:nodetypes="aaaaaaaaaaaa"
         inkscape:transform-center-x="1.9661695"
         inkscape:transform-center-y="-0.15361533" /><path
         style="fill:#5e3030;stroke:#000000;stroke-width:0.1;stroke-linecap:butt;stroke-linejoin:miter;stroke-opacity:1;fill-opacity:1;stroke-dasharray:none"
         d="m 19.0563,38.119241 c -0.409542,-0.102385 -0.851522,0.242843 -1.140493,0.550582 -0.784867,0.835841 -0.943072,2.095189 -1.297802,3.185515 -0.355102,1.091465 -0.697768,2.202217 -0.825874,3.342822 -0.07902,0.703589 -0.292662,1.498324 0.03933,2.123675 0.202941,0.382269 0.629143,0.737723 1.061837,0.747221 0.389007,0.0085 0.741035,-0.324668 0.983185,-0.629238 0.510913,-0.642618 0.580825,-1.536768 0.825872,-2.320313 0.344555,-1.101725 0.709947,-2.204995 0.90453,-3.342823 0.148466,-0.868149 0.438594,-1.788065 0.196637,-2.63493 -0.115971,-0.405904 -0.33768,-0.920126 -0.747222,-1.022511 z"
         id="path1228"
         sodipodi:nodetypes="aaaaaaaaaaa" /><path
         style="fill:#323232;stroke:#000000;stroke-width:0.1;stroke-linecap:butt;stroke-linejoin:miter;stroke-opacity:1;stroke-dasharray:none;fill-opacity:1"
         d="m 15.04491,52.670353 c -0.549074,0.185231 -0.829213,0.845722 -1.061837,1.376455 -0.437771,0.998775 -0.425849,2.141497 -0.550585,3.224842 -0.124682,1.082875 -0.08669,2.179699 -0.196635,3.26417 -0.112192,1.106672 -0.91568,2.194123 -0.471928,3.303495 1.273231,-0.321233 1.739848,-2.201579 2.202332,-3.500133 0.323502,-0.908322 0.158266,-1.926749 0.353943,-2.870896 0.235709,-1.137301 0.931715,-2.182493 0.983184,-3.342822 0.01777,-0.400668 0.03818,-0.887079 -0.235963,-1.17982 -0.241271,-0.257641 -0.688057,-0.38812 -1.022511,-0.275291 z"
         id="path1232"
         sodipodi:nodetypes="aaaacaaaaa" /><path
         style="fill:#4d3838;stroke:#000000;stroke-width:0.1;stroke-linecap:butt;stroke-linejoin:miter;stroke-opacity:1;fill-opacity:1;stroke-dasharray:none"
         d="m 16.853967,46.377979 c -0.416591,-0.0044 -0.872502,0.192276 -1.140492,0.511257 -0.652419,0.776555 -0.569439,1.95101 -0.747217,2.949549 -0.19869,1.115991 -0.73257,2.313712 -0.353948,3.38215 0.111463,0.314538 0.377512,0.660905 0.707891,0.707893 0.29624,0.04213 0.587166,-0.209486 0.786548,-0.432602 0.321182,-0.359417 0.395685,-0.880678 0.550582,-1.337127 0.436354,-1.285832 0.936466,-2.580681 1.061839,-3.932735 0.04614,-0.497561 0.165651,-1.08304 -0.117982,-1.494438 -0.156436,-0.226903 -0.471632,-0.35106 -0.747221,-0.353947 z"
         id="path1230"
         sodipodi:nodetypes="aaaaaaaaaa" /><path
         style="fill:#948080;stroke:#000000;stroke-width:0.1;stroke-linecap:butt;stroke-linejoin:miter;stroke-opacity:1;fill-opacity:1;stroke-dasharray:none"
         d="m 22.80307,21.134553 c -0.422205,0.373715 -0.265198,1.10482 -0.278086,1.668517 -0.01067,0.46668 0.240576,0.929488 0.166851,1.390431 -0.09693,0.60605 -0.645712,1.069332 -0.778641,1.668517 -0.16061,0.723962 0.134702,1.495463 0,2.22469 -0.105977,0.573721 -0.625285,1.634779 -0.625285,1.634779 0,0 0.588852,1.518152 0.736519,2.314046 0.115185,0.620823 -0.08639,1.29129 0.111235,1.890985 0.159327,0.48349 0.649449,0.804862 0.834259,1.279197 0.163757,0.420301 0.05871,0.914513 0.222468,1.334814 0.18481,0.474335 0.834259,1.279197 0.834259,1.279197 0,0 0.726695,-1.067865 0.945494,-1.668518 0.174237,-0.478319 0.111301,-1.020697 0.278086,-1.501666 0.130413,-0.376081 0.447291,-0.673857 0.556172,-1.056727 0.218587,-0.768641 0.0074,-1.608488 0.166852,-2.39154 0.113461,-0.557267 0.556171,-1.612903 0.556171,-1.612903 0,0 -0.80981,-1.160678 -0.945492,-1.835367 -0.139325,-0.692807 0.344841,-1.429561 0.166852,-2.113456 -0.185193,-0.711576 -1.021191,-1.128492 -1.22358,-1.835369 -0.168475,-0.588427 0.201733,-1.240994 0.05562,-1.835369 -0.08124,-0.330493 -0.203115,-0.724483 -0.500556,-0.889876 -0.373014,-0.207415 -0.959609,-0.227266 -1.279198,0.05562 z"
         id="path1316"
         sodipodi:nodetypes="aaaaacaaaacaaaacaaaaaa" /><path
         style="fill:#948080;stroke:#000000;stroke-width:0.1;stroke-linecap:butt;stroke-linejoin:miter;stroke-opacity:1;fill-opacity:1;stroke-dasharray:none"
         d="m 21.245787,21.245787 c 0.287013,0.348477 -0.369731,0.834049 -0.444938,1.279197 -0.0803,0.475281 0,1.446048 0,1.446048 0,0 -0.816666,-0.266934 -1.00111,-0.61179 -0.218762,-0.40902 -0.130418,-0.965526 0.05562,-1.390431 0.11567,-0.264188 0.353837,-0.482812 0.61179,-0.611789 0.234502,-0.117251 0.611957,-0.313611 0.778638,-0.111235 z"
         id="path1318"
         sodipodi:nodetypes="aacaaaa" /><path
         style="fill:#948080;stroke:#000000;stroke-width:0.1;stroke-linecap:butt;stroke-linejoin:miter;stroke-opacity:1;fill-opacity:1;stroke-dasharray:none"
         d="m 25.41708,21.19017 c -0.213705,0.37818 0.6605,0.602992 0.834259,1.00111 0.231798,0.531095 0.222469,1.724135 0.222469,1.724135 0,0 0.776064,-0.773468 0.834258,-1.279197 0.04961,-0.431143 -0.10949,-0.948221 -0.444936,-1.223579 -0.376952,-0.309429 -1.206121,-0.647055 -1.44605,-0.222469 z"
         id="path1320"
         sodipodi:nodetypes="aacaaa" /><g
         id="g426"
         style="stroke:#000000;stroke-opacity:1;stroke-width:0.1;stroke-dasharray:none"><path
           style="fill:#6c4040;stroke:#000000;stroke-width:0.1;stroke-linecap:butt;stroke-linejoin:miter;stroke-opacity:1;fill-opacity:1;stroke-dasharray:none"
           d="m 23.2295,36.26743 c -0.844498,0.227043 -1.663774,0.719537 -2.224689,1.390433 -0.832482,0.995708 -1.200612,2.340671 -1.446049,3.615121 -0.298,1.547388 -0.318137,3.18409 0,4.727464 0.293397,1.423355 0.986662,2.752182 1.724135,4.004442 0.523124,0.888287 1.117541,1.765619 1.890986,2.447158 0.274337,0.241739 0.581138,0.586882 0.945494,0.556173 0.458874,-0.03867 0.766561,-0.532294 1.056727,-0.889876 0.543542,-0.669826 0.858894,-1.498571 1.223579,-2.280306 0.548696,-1.176178 1.187071,-2.343354 1.446049,-3.615121 0.347814,-1.708014 0.458878,-3.519972 0.111234,-5.228021 C 27.713687,39.799622 27.186204,38.634411 26.4553,37.657863 26.045629,37.110507 25.535197,36.570901 24.898018,36.323048 24.379391,36.121311 23.766898,36.122951 23.2295,36.26743 Z"
           id="path937"
           sodipodi:nodetypes="aaaaaaaaaaaaaa" /><path
           style="fill:#948080;stroke:#000000;stroke-width:0.1;stroke-linecap:butt;stroke-linejoin:miter;stroke-opacity:1;fill-opacity:1;stroke-dasharray:none"
           d="m 23.19239,36.373678 c -0.846975,0.675035 -0.387696,2.142732 -0.38932,3.2258 -9.52e-4,0.634675 0.222469,1.890985 0.222469,1.890985 0,0 -0.511785,1.31614 -0.667407,2.002221 -0.132253,0.583056 0.0194,1.232994 -0.222469,1.779752 -0.276588,0.625242 -1.334814,1.557284 -1.334814,1.557284 0,0 0.29602,1.131814 0.667407,1.557282 0.355437,0.407195 1.023187,0.43768 1.390431,0.834258 0.450661,0.486659 0.889876,1.779751 0.889876,1.779751 0,0 0.550229,-1.235914 1.00111,-1.724133 0.39775,-0.430688 1.100233,-0.527708 1.446049,-1.001109 0.411652,-0.563527 0.61179,-2.002222 0.61179,-2.002222 0,0 -0.969188,-0.664768 -1.22358,-1.167963 -0.328879,-0.650534 8.68e-4,-1.495618 -0.278086,-2.169073 -0.19725,-0.476204 -0.945493,-1.223578 -0.945493,-1.223578 0,0 0.45221,-1.618097 0.444938,-2.447158 -0.0083,-0.945276 0.142459,-2.144053 -0.556173,-2.780864 -0.261763,-0.2386 -0.779748,-0.331985 -1.056728,-0.111233 z"
           id="path1322"
           sodipodi:nodetypes="aacaacaacaacaacaaa" /></g></g></g></svg>
