<?xml version="1.0" encoding="UTF-8" standalone="no"?>
<!-- Created with Inkscape (http://www.inkscape.org/) -->

<svg
   width="1610"
   height="2550"
   viewBox="0 0 425.97923 674.68749"
   version="1.1"
   id="svg5"
   xml:space="preserve"
   inkscape:version="1.2.1 (9c6d41e410, 2022-07-14)"
   sodipodi:docname="hand.svg"
   inkscape:export-filename="..\..\..\Desktop\hand.png"
   inkscape:export-xdpi="96"
   inkscape:export-ydpi="96"
   xmlns:inkscape="http://www.inkscape.org/namespaces/inkscape"
   xmlns:sodipodi="http://sodipodi.sourceforge.net/DTD/sodipodi-0.dtd"
   xmlns="http://www.w3.org/2000/svg"
   xmlns:svg="http://www.w3.org/2000/svg"><sodipodi:namedview
     id="namedview7"
     pagecolor="#ffffff"
     bordercolor="#666666"
     borderopacity="1.0"
     inkscape:showpageshadow="2"
     inkscape:pageopacity="0.0"
     inkscape:pagecheckerboard="0"
     inkscape:deskcolor="#d1d1d1"
     inkscape:document-units="mm"
     showgrid="false"
     inkscape:zoom="0.2102413"
     inkscape:cx="206.90511"
     inkscape:cy="1217.6485"
     inkscape:window-width="1920"
     inkscape:window-height="1027"
     inkscape:window-x="-8"
     inkscape:window-y="-8"
     inkscape:window-maximized="1"
     inkscape:current-layer="g3286" /><defs
     id="defs2" /><g
     id="g3337"
     inkscape:label="hand holding pencil"
     transform="rotate(18.129016,441.9996,-185.74099)"><g
       id="g328"
       inkscape:label="hand, no thumb"
       style="fill:#999999;fill-opacity:1"
       inkscape:export-filename="..\..\..\Desktop\hand.png"
       inkscape:export-xdpi="96"
       inkscape:export-ydpi="96"
       transform="translate(25.433423,6.5305709)"><path
         style="fill:#999999;fill-opacity:1;stroke:#000000;stroke-width:0.264583px;stroke-linecap:butt;stroke-linejoin:miter;stroke-opacity:1"
         d="m 319.46545,309.67682 c 0,0 -56.6447,27.14182 -69.41032,53.39255 -13.16745,27.07703 0.88987,90.3224 0.88987,90.3224 l 20.46715,41.37922 56.95206,248.27539 222.84764,-59.69471 -163.60169,-312.73091"
         id="path1793"
         sodipodi:nodetypes="caccccc"
         inkscape:label="hand bottom" /><g
         id="g8078"
         style="display:inline;fill:#919191;fill-opacity:1"
         inkscape:label="pinky finger"><path
           style="fill:#919191;fill-opacity:1;stroke:#000000;stroke-width:0.264583px;stroke-linecap:butt;stroke-linejoin:miter;stroke-opacity:1"
           d="m 162.62482,293.43657 c 0,0 8.46772,1.35936 12.73635,1.33482 14.35207,-0.0825 42.76798,-4.97991 42.76798,-4.97991 l 8.33768,-31.17045 -69.79305,12.90236"
           id="path1795"
           sodipodi:nodetypes="caccc"
           inkscape:label="phalanx 2" /><path
           style="display:inline;fill:#919191;fill-opacity:1;stroke:#000000;stroke-width:0.264583px;stroke-linecap:butt;stroke-linejoin:miter;stroke-opacity:1"
           d="m 184.87778,255.43101 c 0,0 -29.08325,3.61308 -42.82746,8.37672 -4.23225,1.46687 -8.30026,3.54607 -11.95551,6.13505 -1.90292,1.34782 -3.84397,2.83304 -5.07833,4.81144 -0.46005,0.73735 -0.77864,2.48832 -0.77864,2.48832 0,0 -1.62376,2.893 -1.85119,4.49846 -0.47352,3.34257 -0.53351,7.11401 1.10117,10.0678 2.00648,3.62562 5.94518,6.07406 9.75318,7.70815 3.40734,1.46216 7.30762,1.40556 11.01165,1.57309 5.08789,0.23012 10.32241,0.46628 15.259,-0.78656 3.77375,-0.95772 7.67551,-2.39671 10.53973,-5.03388 1.60773,-1.48028 2.47965,-3.63896 3.30349,-5.66314 0.32601,-0.80101 0.62924,-2.51696 0.62924,-2.51696"
           id="path943"
           sodipodi:nodetypes="caaacaaaaaaac"
           inkscape:label="phalanx 1" /></g><g
         id="g6545"
         inkscape:label="hand top"
         style="fill:#999999;fill-opacity:1"><path
           style="display:inline;fill:#999999;fill-opacity:1;stroke:#000000;stroke-width:0.264583px;stroke-linecap:butt;stroke-linejoin:miter;stroke-opacity:1"
           d="m 147.01776,133.98622 c 0,0 -6.03535,-1.15632 -8.75329,-2.50706 -2.49029,-1.23761 -5.04066,-2.75496 -6.67407,-5.00555 -2.09371,-2.88482 -3.15188,-6.57016 -3.44827,-10.12234 -0.30614,-3.66902 0.0657,-7.64253 1.77975,-10.90098 1.72141,-3.27246 8.00888,-7.675177 8.00888,-7.675177 0,0 17.16118,-8.228378 26.25134,-10.900978 6.21706,-1.82788 12.68588,-2.787873 19.13234,-3.44827 4.2801,-0.438468 12.9032,-0.333703 12.9032,-0.333703 0,0 15.49263,-2.194966 23.248,-3.2258 11.07812,-1.472489 22.11618,-3.37388 33.25912,-4.226912 11.20581,-0.857845 33.70405,-0.889876 33.70405,-0.889876 0,0 3.58456,-1.259626 5.4505,-1.557282 3.84738,-0.613737 7.87648,-1.290636 11.67961,-0.444936 1.34358,0.29877 3.67074,1.890985 3.67074,1.890985 0,0 4.97375,-0.530121 7.45271,-0.333703 6.60385,0.52325 13.15683,1.984871 19.46603,4.004442 4.71136,1.508103 13.57061,6.006661 13.57061,6.006661 0,0 5.09193,0.02648 7.56394,0.556172 4.66792,1.000223 9.08333,2.986401 13.45938,4.894318 4.62103,2.014727 8.89284,4.761181 13.45938,6.89654 15.90787,7.438679 32.65758,12.997599 48.49823,20.578379 5.3867,2.57789 15.7953,8.45382 15.7953,8.45382 0,0 11.04024,2.58512 16.4627,4.22691 7.51961,2.27675 15.14808,4.41968 22.2469,7.78641 6.67645,3.16642 14.21159,5.8651 18.90985,11.56839 13.12964,15.93826 17.6711,37.78692 21.61306,58.05701 3.60495,18.53712 2.85187,37.7903 1.5731,56.63135 -1.26672,18.66357 -4.64537,37.21039 -9.12394,55.37288 -3.45239,14.00092 -13.61727,41.06183 -13.61727,41.06183 0,0 -3.00246,24.71338 -5.33926,36.92983 -1.91941,10.03444 -5.31203,19.75555 -7.11901,29.81084 -1.53529,8.54339 -2.62563,17.18523 -3.14835,25.84972 -0.43104,7.14482 0.0147,21.47344 0.0147,21.47344 0,0 1.17584,17.48024 2.68871,26.09162 4.88233,27.79073 12.00479,55.22493 20.54271,82.11853 10.89037,34.30361 39.01271,100.67796 39.01271,100.67796"
           id="path923"
           sodipodi:nodetypes="caaaacaacaacaacaacaaaacaaaaaacaaacaac"
           inkscape:label="hand and index finger" /><path
           style="fill:#999999;fill-opacity:1;stroke:#000000;stroke-width:0.264583px;stroke-linecap:butt;stroke-linejoin:miter;stroke-opacity:1"
           d="m 281.82847,149.09268 c 0,0 -8.03231,-1.7063 -11.25643,-4.05349 -2.35726,-1.71611 -4.59391,-4.10518 -5.34852,-6.92161 -1.01337,-3.78216 0.50503,-7.87381 1.57308,-11.64089 0.56348,-1.98742 2.51695,-5.66313 2.51695,-5.66313"
           id="path931"
           sodipodi:nodetypes="caaac"
           inkscape:label="wrink 5" /><path
           style="fill:#999999;fill-opacity:1;stroke:#000000;stroke-width:0.264583px;stroke-linecap:butt;stroke-linejoin:miter;stroke-opacity:1"
           d="m 304.53266,173.9617 c 0,0 -15.31663,-9.05047 -19.80279,-16.33776 -2.98761,-4.85306 -3.36877,-10.99037 -3.77542,-16.67479 -0.37536,-5.24699 0.23434,-10.57119 1.25846,-15.73093 1.33009,-6.70132 3.25083,-13.38869 6.29238,-19.50636 1.13981,-2.29256 4.40468,-6.292369 4.40468,-6.292369"
           id="path929"
           sodipodi:nodetypes="caaaac"
           inkscape:label="wrink 4" /><path
           style="fill:#999999;fill-opacity:1;stroke:#000000;stroke-width:0.264583px;stroke-linecap:butt;stroke-linejoin:miter;stroke-opacity:1"
           d="m 267.28782,141.99035 c 0,0 -8.89885,5.37676 -13.7052,7.2962 -2.79314,1.11546 -8.69434,2.41274 -8.69434,2.41274"
           id="path933"
           sodipodi:nodetypes="cac"
           inkscape:label="wrink 3" /><path
           style="fill:#999999;fill-opacity:1;stroke:#000000;stroke-width:0.264583px;stroke-linecap:butt;stroke-linejoin:miter;stroke-opacity:1"
           d="m 201.13828,126.00909 c 0,0 -0.28317,-8.36499 0.53227,-12.43176 1.04371,-5.20518 5.50583,-14.944387 5.50583,-14.944387"
           id="path935"
           sodipodi:nodetypes="cac"
           inkscape:label="wrink 2" /><path
           style="fill:#999999;fill-opacity:1;stroke:#000000;stroke-width:0.264583px;stroke-linecap:butt;stroke-linejoin:miter;stroke-opacity:1"
           d="m 417.79674,146.38458 c 0,0 -12.65649,14.27407 -20.46716,19.57727 -6.47887,4.39895 -13.80701,7.7092 -21.35701,9.78864 -16.56271,4.56174 -51.23937,5.54274 -51.23937,5.54274"
           id="path1057"
           sodipodi:nodetypes="caac"
           inkscape:label="wrink 1" /></g><path
         style="display:inline;fill:#949494;fill-opacity:1;stroke:#000000;stroke-width:0.264583px;stroke-linecap:butt;stroke-linejoin:miter;stroke-opacity:1"
         d="m 177.29638,222.64857 c 0,0 -22.02088,12.77389 -29.01093,22.92527 -1.58955,2.30844 -2.22599,5.23515 -2.51695,8.02278 -0.36914,3.53662 0.005,7.21127 1.02251,10.61838 0.8055,2.69692 2.12657,5.31348 3.93273,7.47218 1.83415,2.19216 4.24292,3.92363 6.7643,5.26987 2.65489,1.41753 5.59132,2.42508 8.57336,2.83157 2.70483,0.3687 5.46123,-0.14866 8.18009,-0.39328 1.48384,-0.1335 3.0141,-0.12514 4.43097,-0.58568 15.12306,-4.91558 41.93141,-22.75048 41.93141,-22.75048"
         id="path941"
         sodipodi:nodetypes="caaaaaaaac"
         inkscape:label="ring finger" /><path
         style="fill:#969696;fill-opacity:1;stroke:#000000;stroke-width:0.264583px;stroke-linecap:butt;stroke-linejoin:miter;stroke-opacity:1"
         d="m 158.7251,179.96186 c 0,0 -21.73531,6.86508 -32.40572,10.85435 -3.08299,1.15261 -6.48472,1.80873 -9.12394,3.77542 -0.8668,0.64593 -2.04502,2.51695 -2.04502,2.51695 0,0 -3.45872,8.2341 -3.4608,12.58474 -0.002,3.96892 1.01223,8.13715 3.14618,11.48359 2.66048,4.17215 6.89298,7.39793 11.32627,9.59586 5.00394,2.48085 10.77643,3.49255 16.36018,3.61812 2.3037,0.0518 4.63283,-0.43318 6.81005,-1.18779 0.99969,-0.34649 2.79373,-1.50666 2.79373,-1.50666 l 35.41092,-17.51878"
         id="path939"
         sodipodi:nodetypes="caacaaaaacc"
         inkscape:label="middle finger" /></g><g
       id="g6537"
       transform="translate(47.821827,7.507445)"
       inkscape:label="pencil"><path
         style="fill:#cebd80;fill-opacity:1;stroke:#000000;stroke-width:0.264583px;stroke-linecap:butt;stroke-linejoin:miter;stroke-opacity:1"
         d="m 472.87182,212.99682 -16.8321,14.15784 -8.49472,25.79873 6.76432,15.41631 13.05668,-11.7982 7.55084,-28.7876 z"
         id="path5494"
         inkscape:label="wood back" /><ellipse
         style="fill:#000000;fill-opacity:1;stroke:none;stroke-width:1;stroke-linejoin:round;stroke-dasharray:none;stroke-opacity:1"
         id="path5548"
         cx="514.12408"
         cy="88.397339"
         rx="3.5592773"
         ry="11.339206"
         transform="rotate(17.701909)"
         inkscape:label="lead back" /><path
         style="fill:#cebd80;fill-opacity:1;stroke:#000000;stroke-width:0.264583px;stroke-linecap:butt;stroke-linejoin:miter;stroke-opacity:1"
         d="m 95.644067,116.4089 -45.061637,3.2012 -7.868386,3.97142 4.533882,9.48789 33.766373,27.3861 z"
         id="path6528"
         inkscape:label="wood front" /><path
         style="display:inline;fill:#99872e;fill-opacity:1;stroke:#000000;stroke-width:0.264583px;stroke-linecap:butt;stroke-linejoin:miter;stroke-opacity:1"
         d="M 447.545,252.95339 79.198956,146.82952 c -1.628008,4.26286 -1.57761,8.73551 1.815343,13.62599 L 454.30932,268.3697 Z"
         id="path6488"
         sodipodi:nodetypes="ccccc"
         inkscape:label="body bottom" /><path
         style="display:inline;fill:#b29d35;fill-opacity:1;stroke:#000000;stroke-width:0.264583px;stroke-linecap:butt;stroke-linejoin:miter;stroke-opacity:1"
         d="M 456.03972,227.15466 83.648335,129.03201 c -3.229243,3.93694 -8.179185,5.90737 -4.449379,17.79751 L 447.545,252.95339 Z"
         id="path6486"
         sodipodi:nodetypes="ccccc"
         inkscape:label="body middle" /><path
         style="fill:#ccb43e;fill-opacity:1;stroke:#000000;stroke-width:0.264583px;stroke-linecap:butt;stroke-linejoin:miter;stroke-opacity:1"
         d="M 472.87182,212.99682 95.644067,116.4089 c -7.530773,1.22741 -11.172892,5.73588 -11.995732,12.62311 l 372.391385,98.12265 z"
         id="path6484"
         sodipodi:nodetypes="ccccc"
         inkscape:label="body top" /><path
         style="fill:#000000;fill-opacity:1;stroke:#000000;stroke-width:0.264583px;stroke-linecap:butt;stroke-linejoin:miter;stroke-opacity:1"
         d="m 32.258,120.91188 14.989926,12.15753 C 45.4092,127.8066 46.787902,123.39048 50.58243,119.6101 Z"
         id="path6492"
         sodipodi:nodetypes="cccc"
         inkscape:label="lead front" /></g><g
       id="g3286"
       inkscape:label="thumb"
       style="fill:#999999;fill-opacity:1"
       transform="translate(25.433423,6.5305709)"><path
         style="fill:#999999;fill-opacity:1;stroke:#000000;stroke-width:0.264583px;stroke-linecap:butt;stroke-linejoin:miter;stroke-opacity:1"
         d="m 377.30739,282.5356 -12.01333,-0.88987 c 0,0 -7.0833,-4.50759 -10.67853,-6.67409 -4.55366,-2.74406 -8.81085,-6.15329 -13.79307,-8.00886 -5.23371,-1.94923 -16.46269,-3.11458 -16.46269,-3.11458 0,0 -6.21792,-11.17027 -9.78863,-16.4627 -6.98458,-10.35239 -14.29898,-20.56336 -22.69186,-29.81084 -5.57202,-6.13938 -18.24244,-16.90765 -18.24244,-16.90765 0,0 -2.86934,-9.35462 -4.89431,-13.79307 -3.74916,-8.21763 -8.0584,-16.26022 -13.34815,-23.58171 -3.75099,-5.19171 -8.06537,-10.0405 -12.9032,-14.23802 -4.59844,-3.98982 -9.44816,-8.04153 -15.12789,-10.23357 -1.95678,-0.7552 -6.22913,-0.88988 -6.22913,-0.88988 0,0 -10.22695,-7.9137 -16.01777,-10.67851 -6.73071,-3.21356 -13.94348,-5.85623 -21.35702,-6.67406 -5.32545,-0.58748 -10.86607,-0.13682 -16.01776,1.33481 -6.56927,1.87657 -12.81671,5.19181 -18.24246,9.34369 -5.25297,4.01966 -10.22705,8.85114 -13.34814,14.68296 -3.75109,7.00897 -5.50845,15.19194 -5.78419,23.13677 -0.32393,9.33337 1.73089,18.79926 4.89432,27.58615 3.46463,9.62353 15.12789,26.69628 15.12789,26.69628 0,0 0.88925,7.29671 2.22469,10.67851 1.46674,3.71433 3.91704,6.97753 6.22913,10.23357 5.00255,7.04493 16.4627,20.02221 16.4627,20.02221 0,0 4.20838,22.96521 7.11901,34.26023 2.63394,10.22131 9.3437,30.25576 9.3437,30.25576 0,0 -1.08009,16.45686 0.44493,24.47161 3.64061,19.13317 11.71446,37.32845 20.46715,54.72737 8.09754,16.09659 17.24242,32.05356 29.3659,45.38366 5.47024,6.01468 19.13234,15.12789 19.13234,15.12789 l 13.34814,3.5595 14.01554,1.77976 13.57061,-0.22247"
         id="path921"
         sodipodi:nodetypes="ccaaacacaacaaaaaaacaaaacaacaacc"
         inkscape:label="thumb" /><path
         style="fill:#9e9e9e;fill-opacity:1;stroke:#000000;stroke-width:0.264583px;stroke-linecap:butt;stroke-linejoin:miter;stroke-opacity:1"
         d="m 146.7696,173.8268 c 0,0 4.65302,-9.51869 7.86546,-13.68591 3.50888,-4.55176 7.5667,-8.81003 12.27013,-12.11282 5.27847,-3.70659 11.46857,-5.95245 17.46133,-8.33739 4.76087,-1.89468 14.62977,-4.71928 14.62977,-4.71928 0,0 -4.81377,-4.41033 -7.70816,-5.82045 -4.58516,-2.23385 -9.69727,-3.60461 -14.78707,-3.93273 -3.80026,-0.24499 -7.68242,0.38794 -11.32627,1.49444 -4.30826,1.30825 -8.71487,3.02367 -12.11282,5.97775 -3.30378,2.87221 -5.61407,6.85458 -7.39354,10.85434 -1.79902,4.0437 -2.83623,8.4844 -3.14618,12.89937 -0.29707,4.23151 -0.12336,8.65285 1.25847,12.6634 0.60657,1.76048 2.98888,4.71928 2.98888,4.71928 z"
         id="path947"
         sodipodi:nodetypes="caaacaaaaaaac"
         inkscape:label="fingernail" /><path
         style="fill:#999999;fill-opacity:1;stroke:#000000;stroke-width:0.264583px;stroke-linecap:butt;stroke-linejoin:miter;stroke-opacity:1"
         d="m 181.37765,194.59163 c 0,0 8.10875,-6.23854 12.42743,-8.96663 7.28141,-4.59963 14.64716,-9.25108 22.65255,-12.42744 5.43795,-2.15765 16.9894,-4.40466 16.9894,-4.40466"
         id="path949"
         sodipodi:nodetypes="caac"
         inkscape:label="wrink 5" /><path
         style="fill:#999999;fill-opacity:1;stroke:#000000;stroke-width:0.264583px;stroke-linecap:butt;stroke-linejoin:miter;stroke-opacity:1"
         d="m 244.88828,151.69929 c 0,0 -6.4555,-1.32333 -9.71085,-1.15427 -6.65685,0.34571 -13.20503,2.2306 -19.50635,4.40466 -4.16852,1.43821 -11.95551,5.66314 -11.95551,5.66314"
         id="path951"
         sodipodi:nodetypes="caac"
         inkscape:label="wrink 4" /><path
         style="fill:#999999;fill-opacity:1;stroke:#000000;stroke-width:0.264583px;stroke-linecap:butt;stroke-linejoin:miter;stroke-opacity:1"
         d="m 189.24311,152.11811 c -0.78655,0.31462 -13.91232,7.1223 -19.50635,12.42744 -4.58217,4.34553 -8.65027,9.55937 -11.01166,15.41631 -2.55666,6.34128 -2.87146,13.45663 -2.98887,20.2929 -0.0806,4.69552 1.57309,14.00053 1.57309,14.00053"
         id="path953"
         sodipodi:nodetypes="caaac"
         inkscape:label="wrink 3" /><path
         style="fill:#999999;fill-opacity:1;stroke:#000000;stroke-width:0.264583px;stroke-linecap:butt;stroke-linejoin:miter;stroke-opacity:1"
         d="m 324.35977,263.8482 c 0,0 7.7784,3.57573 10.70909,6.56652 4.72076,4.81756 6.37639,11.9222 10.22509,17.46134 4.21039,6.05969 8.77519,11.93682 14.00053,17.14672 6.59965,6.58015 21.70869,17.61863 21.70869,17.61863"
         id="path955"
         sodipodi:nodetypes="caaac"
         inkscape:label="wrink 2" /><path
         style="fill:#999999;fill-opacity:1;stroke:#000000;stroke-width:0.264583px;stroke-linecap:butt;stroke-linejoin:miter;stroke-opacity:1"
         d="m 359.29448,305.02278 c 0,0 9.43361,-4.15223 14.47247,-4.87659 7.89538,-1.135 16.19331,-1.07172 23.911,0.94385 5.80863,1.517 16.04555,8.18009 16.04555,8.18009"
         id="path957"
         sodipodi:nodetypes="caac"
         inkscape:label="wrink 1" /></g></g></svg>
